<svg width="82" height="29" viewBox="0 0 82 29" fill="none" xmlns="http://www.w3.org/2000/svg">
<path d="M19.3755 15.5544C19.3419 12.0664 22.2555 10.3906 22.3865 10.3108C20.7466 7.94002 18.1994 7.61418 17.2921 7.57757C15.1246 7.35816 13.0612 8.84107 11.959 8.84107C10.8568 8.84107 9.15973 7.60748 7.36187 7.64409C4.9961 7.67735 2.81512 9.00402 1.59528 11.0988C-0.857887 15.3083 0.970231 21.5595 3.36625 24.981C4.53907 26.6534 5.93028 28.5388 7.7651 28.4689C9.53272 28.3991 10.1981 27.3384 12.3286 27.3384C14.4592 27.3384 15.0607 28.4689 16.9258 28.4357C18.8245 28.3991 20.0275 26.7266 21.1903 25.0475C22.5277 23.1023 23.0822 21.2236 23.1158 21.1239C23.0721 21.1072 19.4159 19.7207 19.3755 15.5544Z" fill="#05060F" fill-opacity="0.32"/>
<path d="M15.8714 5.30908C16.8459 4.14201 17.5012 2.5227 17.3231 0.906738C15.9217 0.963268 14.2247 1.83113 13.22 2.99821C12.3193 4.02895 11.5296 5.67817 11.7447 7.26094C13.3006 7.38064 14.9002 6.47287 15.8714 5.30908ZM31.6656 18.9818L30.0526 23.8197H27.9792L33.2585 8.44464H35.678L40.9775 23.8197H38.8335L37.1735 18.9818H31.6656ZM36.7601 17.429L35.2412 13.0033C34.895 11.9991 34.6665 11.0881 34.4347 10.1969H34.391C34.1591 11.108 33.9071 12.0424 33.608 12.98L32.089 17.4256L36.7601 17.429ZM42.5502 16.3815C42.5502 14.9684 42.5065 13.8246 42.4561 12.7772H44.2775L44.3716 14.6725H44.4153C45.2453 13.3259 46.5593 12.5278 48.3807 12.5278C51.0791 12.5278 53.1054 14.7856 53.1054 18.1405C53.1054 22.1106 50.6624 24.0691 48.0345 24.0691C46.5593 24.0691 45.2689 23.4307 44.6001 22.3367H44.5564V28.3351H42.5502V16.3815ZM44.5531 19.3242C44.5531 19.6235 44.5967 19.8928 44.6472 20.1456C45.0168 21.5354 46.2367 22.4963 47.6918 22.4963C49.8358 22.4963 51.0825 20.764 51.0825 18.2303C51.0825 16.0158 49.9063 14.1272 47.7623 14.1272C46.3812 14.1272 45.0907 15.108 44.6942 16.6143C44.6236 16.8637 44.5564 17.163 44.5564 17.4356L44.5531 19.3242ZM55.2023 16.3815C55.2023 14.9684 55.1585 13.8246 55.1086 12.7772H56.9297L57.0241 14.6725H57.0673C57.8974 13.3259 59.2114 12.5278 61.0326 12.5278C63.7311 12.5278 65.7575 14.7856 65.7575 18.1405C65.7575 22.1106 63.315 24.0691 60.687 24.0691C59.2114 24.0691 57.9214 23.4307 57.252 22.3367H57.2089V28.3351H55.2023V16.3815ZM57.2089 19.3242C57.2089 19.6235 57.252 19.8928 57.3027 20.1456C57.6723 21.5354 58.8925 22.4963 60.3475 22.4963C62.4917 22.4963 63.7379 20.764 63.7379 18.2303C63.7379 16.0158 62.5622 14.1272 60.418 14.1272C59.0369 14.1272 57.7462 15.108 57.3499 16.6143C57.2794 16.8637 57.2117 17.163 57.2117 17.4356L57.2089 19.3242ZM67.8579 7.62339H69.8878V23.8164H67.8579V7.62339ZM73.9674 18.6626C74.0112 21.3758 75.7652 22.4963 77.7917 22.4963C79.2432 22.4963 80.1206 22.247 80.8796 21.9278L81.2259 23.3642C80.5135 23.6834 79.2905 24.0491 77.5159 24.0491C74.0816 24.0491 72.0285 21.8147 72.0285 18.483C72.0285 15.1513 74.0112 12.5278 77.2606 12.5278C80.9035 12.5278 81.8713 15.6966 81.8713 17.7282C81.8713 18.1405 81.8275 18.4564 81.8008 18.6626H73.9674ZM79.9153 17.2261C79.9393 15.9493 79.3842 13.9642 77.1025 13.9642C75.0494 13.9642 74.1521 15.8362 73.9906 17.2261H79.9153Z" fill="#05060F" fill-opacity="0.32"/>
</svg>
