<svg width="150" height="17" viewBox="0 0 150 17" fill="none" xmlns="http://www.w3.org/2000/svg">
<path opacity="0.6" d="M6.944 5.252C7.01867 5.34533 7.056 5.46667 7.056 5.616C7.07467 5.74667 7.056 5.85867 7 5.952C6.90667 6.15733 6.748 6.232 6.524 6.176C6.132 6.08267 5.72133 6.04533 5.292 6.064C4.86267 6.08267 4.43333 6.25067 4.004 6.568C3.57467 6.88533 3.23867 7.352 2.996 7.968C2.75333 8.56533 2.632 9.19067 2.632 9.844C2.632 10.4787 2.78133 11.0293 3.08 11.496C3.39733 11.944 3.79867 12.2707 4.284 12.476C4.58267 12.6067 4.91867 12.6813 5.292 12.7C5.66533 12.7187 6.03867 12.7093 6.412 12.672C6.804 12.616 7.18667 12.5413 7.56 12.448C7.93333 12.336 8.288 12.2147 8.624 12.084C8.736 12.0467 8.83867 12.056 8.932 12.112C9.044 12.168 9.11867 12.2427 9.156 12.336C9.24933 12.5787 9.20267 12.8213 9.016 13.064C8.792 13.3067 8.49333 13.5213 8.12 13.708C7.74667 13.8947 7.336 14.044 6.888 14.156C6.44 14.268 5.98267 14.3333 5.516 14.352C5.04933 14.352 4.61067 14.296 4.2 14.184C3.62133 14.0347 3.12667 13.82 2.716 13.54C2.324 13.2413 1.99733 12.9053 1.736 12.532C1.47467 12.14 1.27867 11.7293 1.148 11.3C1.01733 10.852 0.942667 10.3947 0.924 9.928C0.886667 8.808 1.10133 7.8 1.568 6.904C2.05333 6.008 2.72533 5.34533 3.584 4.916C4.21867 4.59867 4.85333 4.47733 5.488 4.552C6.14133 4.608 6.62667 4.84133 6.944 5.252ZM21.293 5C21.3677 5.336 21.4423 5.73733 21.517 6.204C21.5917 6.652 21.6383 7.128 21.657 7.632C21.6943 8.11733 21.7037 8.62133 21.685 9.144C21.6663 9.66667 21.6103 10.1707 21.517 10.656C21.405 11.216 21.181 11.7293 20.845 12.196C20.509 12.6627 20.0983 13.0827 19.613 13.456C19.1463 13.8293 18.6237 14.1373 18.045 14.38C17.485 14.604 16.9157 14.772 16.337 14.884C15.777 14.9773 15.217 14.996 14.657 14.94C14.1157 14.8653 13.6303 14.7067 13.201 14.464C12.7157 14.184 12.3237 13.82 12.025 13.372C11.7263 12.924 11.5957 12.3733 11.633 11.72C11.6703 11.0853 11.7263 10.5067 11.801 9.984C11.8757 9.44267 11.969 8.92933 12.081 8.444C12.2117 7.95867 12.3517 7.47333 12.501 6.988C12.6503 6.484 12.809 5.96133 12.977 5.42C13.0703 5.17733 13.2383 5.03733 13.481 5C13.5743 4.98133 13.6863 4.98133 13.817 5C13.873 5 13.9477 5.03733 14.041 5.112C14.153 5.168 14.2557 5.252 14.349 5.364C14.4423 5.476 14.517 5.60667 14.573 5.756C14.6477 5.90533 14.657 6.07333 14.601 6.26C14.433 6.85733 14.265 7.464 14.097 8.08C13.929 8.696 13.7797 9.284 13.649 9.844C13.537 10.404 13.4623 10.908 13.425 11.356C13.4063 11.7853 13.453 12.1213 13.565 12.364C13.8077 12.7187 14.1343 12.952 14.545 13.064C14.9743 13.1573 15.4223 13.1667 15.889 13.092C16.3557 13.0173 16.8037 12.896 17.233 12.728C17.681 12.5413 18.0637 12.3453 18.381 12.14C18.885 11.804 19.249 11.384 19.473 10.88C19.7157 10.376 19.865 9.82533 19.921 9.228C19.977 8.63067 19.9677 8.00533 19.893 7.352C19.837 6.69867 19.753 6.05467 19.641 5.42C19.6037 5.252 19.613 5.03733 19.669 4.776C19.725 4.51467 19.8743 4.30933 20.117 4.16C20.3783 4.01067 20.6117 4.02933 20.817 4.216C21.041 4.40267 21.1997 4.664 21.293 5ZM32.2223 3.572C32.1476 3.66533 32.0076 3.74 31.8023 3.796C31.6156 3.83333 31.4196 3.77733 31.2143 3.628C31.0649 3.516 30.8876 3.404 30.6823 3.292C30.4769 3.16133 30.2529 3.04 30.0103 2.928C29.7676 2.816 29.5249 2.72267 29.2823 2.648C29.0396 2.57333 28.8063 2.536 28.5823 2.536C28.3023 2.536 28.0036 2.60133 27.6863 2.732C27.3876 2.86267 27.1263 3.04933 26.9023 3.292C26.4729 3.75867 26.3143 4.216 26.4263 4.664C26.5569 5.09333 26.8836 5.49467 27.4063 5.868C27.7423 6.11067 28.1063 6.36267 28.4983 6.624C28.8903 6.86667 29.2729 7.10933 29.6463 7.352C30.0383 7.59467 30.4023 7.828 30.7383 8.052C31.0929 8.276 31.4009 8.472 31.6623 8.64C31.9983 8.864 32.3156 9.10667 32.6143 9.368C32.9129 9.62933 33.1743 9.928 33.3983 10.264C33.6223 10.5813 33.7996 10.9453 33.9303 11.356C34.0609 11.7667 34.1263 12.2333 34.1263 12.756C33.9956 13.7827 33.5849 14.604 32.8943 15.22C32.2223 15.8173 31.4383 16.2 30.5423 16.368C29.7583 16.5173 28.9836 16.4893 28.2183 16.284C27.4716 16.0787 26.8369 15.6867 26.3143 15.108C26.1836 14.9587 26.0716 14.7533 25.9783 14.492C25.8849 14.2307 25.8756 14.044 25.9503 13.932C26.0623 13.764 26.2583 13.652 26.5383 13.596C26.8183 13.5213 27.0329 13.5307 27.1823 13.624C27.6116 14.016 28.1156 14.3053 28.6943 14.492C29.2729 14.66 29.8796 14.6693 30.5143 14.52C30.9996 14.408 31.3916 14.2027 31.6903 13.904C31.9889 13.5867 32.1756 13.232 32.2503 12.84C32.3436 12.4293 32.2876 12.0093 32.0823 11.58C31.8956 11.132 31.5503 10.7307 31.0463 10.376C30.2809 9.79733 29.4596 9.256 28.5823 8.752C27.7236 8.248 26.8463 7.66933 25.9503 7.016C25.5209 6.64267 25.2036 6.232 24.9983 5.784C24.8116 5.336 24.7183 4.89733 24.7183 4.468C24.7183 4.02 24.8116 3.6 24.9983 3.208C25.1849 2.79733 25.4463 2.43333 25.7823 2.116C26.1183 1.78 26.5103 1.50933 26.9583 1.304C27.4063 1.09867 27.9009 0.977333 28.4423 0.939999C29.1889 0.902666 29.9076 1.06133 30.5983 1.416C31.2889 1.752 31.8489 2.172 32.2783 2.676C32.3716 2.788 32.4089 2.928 32.3903 3.096C32.3903 3.264 32.3343 3.42267 32.2223 3.572ZM48.5779 4.356C46.6552 4.26267 44.8072 4.412 43.0339 4.804C41.2605 5.196 39.5059 5.728 37.7699 6.4C37.3219 6.568 36.9765 6.54933 36.7339 6.344C36.5099 6.13867 36.3979 5.93333 36.3979 5.728C36.5285 5.37333 36.7619 5.084 37.0979 4.86C40.9245 2.99333 44.7512 2.30267 48.5779 2.788C48.7645 2.844 48.9139 2.984 49.0259 3.208C49.1565 3.41333 49.2032 3.59067 49.1659 3.74C49.1285 3.92667 49.0725 4.08533 48.9979 4.216C48.9232 4.328 48.7832 4.37467 48.5779 4.356ZM44.6019 14.128C44.6019 14.3333 44.5272 14.52 44.3779 14.688C44.2472 14.8373 44.0792 14.9307 43.8739 14.968C43.5005 15.024 43.2579 14.9587 43.1459 14.772C43.0339 14.5853 42.9685 14.3707 42.9499 14.128C42.9312 12.8213 42.9032 11.524 42.8659 10.236C42.8472 8.92933 42.7912 7.62267 42.6979 6.316C42.6979 6.24133 42.6885 6.15733 42.6699 6.064C42.6512 5.952 42.6512 5.84933 42.6699 5.756C42.6885 5.644 42.7259 5.55067 42.7819 5.476C42.8565 5.40133 42.9685 5.34533 43.1179 5.308C43.5472 5.23333 43.8552 5.308 44.0419 5.532C44.2285 5.73733 44.3219 5.94267 44.3219 6.148C44.4712 7.492 44.5645 8.82667 44.6019 10.152C44.6392 11.4773 44.6392 12.8027 44.6019 14.128ZM61.7345 9.592C61.6225 10.1147 61.4171 10.6187 61.1185 11.104C60.8385 11.5707 60.5118 12.0093 60.1385 12.42C59.7651 12.8307 59.3545 13.1853 58.9065 13.484C58.4771 13.7827 58.0385 14.016 57.5905 14.184C56.7691 14.4827 55.9478 14.5853 55.1265 14.492C54.3238 14.38 53.6051 14.0067 52.9705 13.372C52.5411 12.8493 52.2331 12.2613 52.0465 11.608C51.8785 10.9547 51.7945 10.292 51.7945 9.62C51.8131 8.92933 51.9065 8.26667 52.0745 7.632C52.2611 6.99733 52.4945 6.428 52.7745 5.924C53.1105 5.32667 53.5118 4.832 53.9785 4.44C54.4451 4.048 54.9585 3.81467 55.5185 3.74C55.6678 3.70267 55.7891 3.74 55.8825 3.852C55.9758 3.964 56.0225 4.09467 56.0225 4.244C56.2091 4.05733 56.4985 3.91733 56.8905 3.824C57.2825 3.73067 57.7211 3.72133 58.2065 3.796C59.1025 3.908 59.8118 4.17867 60.3345 4.608C60.8571 5.03733 61.2398 5.54133 61.4825 6.12C61.7438 6.68 61.8745 7.27733 61.8745 7.912C61.8931 8.528 61.8465 9.088 61.7345 9.592ZM55.6305 5.728C55.2571 5.896 54.9398 6.148 54.6785 6.484C54.4358 6.80133 54.2305 7.16533 54.0625 7.576C53.9131 7.98667 53.8105 8.43467 53.7545 8.92C53.7171 9.38667 53.7171 9.844 53.7545 10.292C53.8105 10.9453 54.0065 11.4867 54.3425 11.916C54.6785 12.3267 55.2011 12.532 55.9105 12.532C56.3211 12.532 56.7225 12.4573 57.1145 12.308C57.5251 12.14 57.8985 11.9253 58.2345 11.664C58.5705 11.4027 58.8785 11.0947 59.1585 10.74C59.4385 10.3667 59.6625 9.984 59.8305 9.592C59.9238 9.38667 59.9985 9.13467 60.0545 8.836C60.1105 8.51867 60.1291 8.20133 60.1105 7.884C60.0918 7.548 60.0171 7.23067 59.8865 6.932C59.7558 6.63333 59.5505 6.38133 59.2705 6.176C58.8785 5.896 58.4118 5.728 57.8705 5.672C57.3291 5.616 56.7598 5.73733 56.1625 6.036C56.0505 6.11067 55.9198 6.12933 55.7705 6.092C55.6398 6.036 55.5931 5.91467 55.6305 5.728ZM79.2392 16.536C79.0338 16.536 78.8192 16.3773 78.5952 16.06C78.3898 15.7427 78.2778 15.4347 78.2592 15.136C78.1098 14.0533 77.9232 12.7933 77.6992 11.356C77.4938 9.9 77.2138 8.18267 76.8592 6.204C76.2992 7.268 75.7485 8.32267 75.2072 9.368C74.6658 10.4133 74.1245 11.4587 73.5832 12.504C73.2472 13.1573 72.9018 13.484 72.5472 13.484C72.0245 13.484 71.6138 13.2133 71.3152 12.672C70.6618 11.72 69.9805 10.8333 69.2712 10.012C68.5805 9.172 67.8618 8.34133 67.1152 7.52C67.0778 8.77067 67.0872 10.0027 67.1432 11.216C67.2178 12.4107 67.3392 13.5773 67.5072 14.716C67.5445 14.9213 67.5165 15.108 67.4232 15.276C67.3485 15.4253 67.2645 15.5187 67.1712 15.556C66.9098 15.6493 66.6485 15.5933 66.3872 15.388C66.1258 15.1827 65.9672 14.9587 65.9112 14.716C65.7432 14.044 65.6218 13.2973 65.5472 12.476C65.4725 11.6547 65.4165 10.824 65.3792 9.984C65.3605 9.144 65.3512 8.31333 65.3512 7.492C65.3512 6.67067 65.3605 5.924 65.3792 5.252C65.3792 4.50533 65.6218 4.132 66.1072 4.132C66.4058 4.132 66.6578 4.244 66.8632 4.468C67.0685 4.67333 67.1805 4.972 67.1992 5.364C68.1325 6.29733 69.0098 7.25867 69.8312 8.248C70.6712 9.21867 71.4832 10.208 72.2672 11.216C72.9205 10.04 73.5832 8.836 74.2552 7.604C74.9272 6.35333 75.6832 5.14 76.5232 3.964C76.5605 3.75867 76.6632 3.55333 76.8312 3.348C76.9992 3.124 77.1858 2.97467 77.3912 2.9C77.5965 2.82533 77.8112 2.90933 78.0352 3.152C78.2592 3.39467 78.4085 3.67467 78.4832 3.992C78.8005 5.87733 79.0712 7.76267 79.2952 9.648C79.5378 11.5333 79.7712 13.4187 79.9952 15.304C80.0325 15.6587 79.9672 15.9573 79.7992 16.2C79.6312 16.424 79.4445 16.536 79.2392 16.536ZM96.8807 8.108C96.7873 8.108 96.666 8.09867 96.5167 8.08C96.386 8.04267 96.2553 7.996 96.1247 7.94C96.0127 7.86533 95.91 7.78133 95.8167 7.688C95.7233 7.576 95.6767 7.464 95.6767 7.352C95.6767 7.20267 95.7607 7.02533 95.9287 6.82C96.1153 6.596 96.414 6.428 96.8247 6.316C97.3847 6.18533 97.9727 6.11067 98.5887 6.092C99.2047 6.05467 99.8207 6.05467 100.437 6.092C101.053 6.11067 101.659 6.148 102.257 6.204C102.854 6.24133 103.414 6.26933 103.937 6.288C104.235 6.288 104.431 6.344 104.525 6.456C104.618 6.568 104.665 6.69867 104.665 6.848C104.665 7.184 104.515 7.44533 104.217 7.632C103.918 7.81867 103.619 7.90267 103.321 7.884C103.003 7.86533 102.667 7.856 102.313 7.856C101.977 7.856 101.622 7.856 101.249 7.856C101.249 8.37867 101.267 8.96667 101.305 9.62C101.361 10.2547 101.417 10.8987 101.473 11.552C101.529 12.2053 101.585 12.8307 101.641 13.428C101.715 14.0253 101.781 14.5293 101.837 14.94C101.874 15.0893 101.837 15.2293 101.725 15.36C101.631 15.472 101.482 15.528 101.277 15.528C100.885 15.528 100.595 15.2853 100.409 14.8C100.054 13.8853 99.802 12.84 99.6527 11.664C98.6447 12.28 97.6553 12.6627 96.6847 12.812C95.714 12.9613 94.8367 12.9333 94.0527 12.728C93.2873 12.504 92.662 12.1307 92.1767 11.608C91.71 11.0667 91.4767 10.4133 91.4767 9.648C91.4767 8.92 91.6073 8.136 91.8687 7.296C92.13 6.456 92.5033 5.644 92.9887 4.86C93.474 4.076 94.0433 3.36667 94.6967 2.732C95.3687 2.07867 96.1153 1.584 96.9367 1.248C97.2167 1.17333 97.478 1.164 97.7207 1.22C97.982 1.25733 98.2153 1.35067 98.4207 1.5C98.6447 1.63067 98.8407 1.79867 99.0087 2.004C99.1953 2.19067 99.354 2.37733 99.4847 2.564C99.578 2.69467 99.634 2.83467 99.6527 2.984C99.6713 3.13333 99.6153 3.27333 99.4847 3.404C99.2047 3.60933 98.962 3.59067 98.7567 3.348C98.4393 2.956 98.1687 2.72267 97.9447 2.648C97.7393 2.55467 97.45 2.62933 97.0767 2.872C96.7033 3.13333 96.2927 3.53467 95.8447 4.076C95.3967 4.59867 94.9767 5.18667 94.5847 5.84C94.2113 6.47467 93.9127 7.13733 93.6887 7.828C93.4647 8.5 93.39 9.12533 93.4647 9.704C93.5207 10.208 93.8007 10.572 94.3047 10.796C94.8087 11.0013 95.378 11.0947 96.0127 11.076C96.666 11.0573 97.31 10.936 97.9447 10.712C98.598 10.488 99.102 10.1893 99.4567 9.816C99.438 9.49867 99.4193 9.18133 99.4007 8.864C99.382 8.528 99.3727 8.20133 99.3727 7.884C98.962 7.92133 98.5513 7.95867 98.1407 7.996C97.73 8.01467 97.31 8.052 96.8807 8.108ZM110.313 13.12C110.332 13.1947 110.341 13.3067 110.341 13.456C110.341 13.5867 110.313 13.7267 110.257 13.876C110.201 14.0067 110.117 14.128 110.005 14.24C109.912 14.3333 109.772 14.38 109.585 14.38C109.175 14.1187 108.829 13.7733 108.549 13.344C108.4 12.784 108.26 12.14 108.129 11.412C108.017 10.684 107.924 9.928 107.849 9.144C107.775 8.34133 107.719 7.52933 107.681 6.708C107.663 5.88667 107.663 5.09333 107.681 4.328C107.681 4.19733 107.691 4.02933 107.709 3.824C107.747 3.61867 107.803 3.42267 107.877 3.236C107.952 3.03067 108.045 2.86267 108.157 2.732C108.269 2.58267 108.428 2.508 108.633 2.508C108.876 2.508 109.072 2.58267 109.221 2.732C109.371 2.88133 109.445 3.124 109.445 3.46C109.427 4.20667 109.427 5.00933 109.445 5.868C109.483 6.708 109.539 7.55733 109.613 8.416C109.688 9.27467 109.781 10.1147 109.893 10.936C110.024 11.7387 110.164 12.4667 110.313 13.12ZM122.68 3.432C122.643 3.544 122.512 3.67467 122.288 3.824C122.064 3.97333 121.878 4.048 121.728 4.048C120.926 3.97333 120.123 3.908 119.32 3.852C118.536 3.796 117.734 3.75867 116.912 3.74C117.024 4.39333 117.127 5.04667 117.22 5.7C117.332 6.35333 117.435 7.00667 117.528 7.66C119.115 7.604 120.683 7.52 122.232 7.408C122.494 7.408 122.755 7.492 123.016 7.66C123.278 7.828 123.408 7.98667 123.408 8.136C123.408 8.34133 123.324 8.528 123.156 8.696C122.988 8.84533 122.783 8.93867 122.54 8.976C121.756 9.10667 120.963 9.20933 120.16 9.284C119.376 9.34 118.574 9.38667 117.752 9.424C117.846 10.0773 117.92 10.7307 117.976 11.384C118.051 12.0187 118.116 12.6533 118.172 13.288C118.21 13.5493 118.182 13.8293 118.088 14.128C118.014 14.408 117.883 14.548 117.696 14.548C117.528 14.548 117.37 14.5013 117.22 14.408C117.071 14.3147 116.931 14.212 116.8 14.1C116.688 13.9693 116.595 13.8293 116.52 13.68C116.446 13.5307 116.399 13.4 116.38 13.288C116.194 11.6827 115.988 10.0867 115.764 8.5C115.559 6.91333 115.326 5.31733 115.064 3.712H114.14C113.879 3.712 113.636 3.684 113.412 3.628C113.188 3.572 113.02 3.432 112.908 3.208C112.871 3.152 112.843 3.05867 112.824 2.928C112.824 2.79733 112.834 2.66667 112.852 2.536C112.89 2.40533 112.946 2.284 113.02 2.172C113.095 2.06 113.198 1.98533 113.328 1.948C114.056 1.836 114.831 1.78933 115.652 1.808C116.492 1.82667 117.304 1.88267 118.088 1.976C118.891 2.05067 119.638 2.16267 120.328 2.312C121.038 2.46133 121.644 2.62 122.148 2.788C122.466 2.97467 122.643 3.18933 122.68 3.432ZM137.39 4.356C135.468 4.26267 133.62 4.412 131.846 4.804C130.073 5.196 128.318 5.728 126.582 6.4C126.134 6.568 125.789 6.54933 125.546 6.344C125.322 6.13867 125.21 5.93333 125.21 5.728C125.341 5.37333 125.574 5.084 125.91 4.86C129.737 2.99333 133.564 2.30267 137.39 2.788C137.577 2.844 137.726 2.984 137.838 3.208C137.969 3.41333 138.016 3.59067 137.978 3.74C137.941 3.92667 137.885 4.08533 137.81 4.216C137.736 4.328 137.596 4.37467 137.39 4.356ZM133.414 14.128C133.414 14.3333 133.34 14.52 133.19 14.688C133.06 14.8373 132.892 14.9307 132.686 14.968C132.313 15.024 132.07 14.9587 131.958 14.772C131.846 14.5853 131.781 14.3707 131.762 14.128C131.744 12.8213 131.716 11.524 131.678 10.236C131.66 8.92933 131.604 7.62267 131.51 6.316C131.51 6.24133 131.501 6.15733 131.482 6.064C131.464 5.952 131.464 5.84933 131.482 5.756C131.501 5.644 131.538 5.55067 131.594 5.476C131.669 5.40133 131.781 5.34533 131.93 5.308C132.36 5.23333 132.668 5.308 132.854 5.532C133.041 5.73733 133.134 5.94267 133.134 6.148C133.284 7.492 133.377 8.82667 133.414 10.152C133.452 11.4773 133.452 12.8027 133.414 14.128ZM148.027 3.572C147.952 3.66533 147.812 3.74 147.607 3.796C147.42 3.83333 147.224 3.77733 147.019 3.628C146.87 3.516 146.692 3.404 146.487 3.292C146.282 3.16133 146.058 3.04 145.815 2.928C145.572 2.816 145.33 2.72267 145.087 2.648C144.844 2.57333 144.611 2.536 144.387 2.536C144.107 2.536 143.808 2.60133 143.491 2.732C143.192 2.86267 142.931 3.04933 142.707 3.292C142.278 3.75867 142.119 4.216 142.231 4.664C142.362 5.09333 142.688 5.49467 143.211 5.868C143.547 6.11067 143.911 6.36267 144.303 6.624C144.695 6.86667 145.078 7.10933 145.451 7.352C145.843 7.59467 146.207 7.828 146.543 8.052C146.898 8.276 147.206 8.472 147.467 8.64C147.803 8.864 148.12 9.10667 148.419 9.368C148.718 9.62933 148.979 9.928 149.203 10.264C149.427 10.5813 149.604 10.9453 149.735 11.356C149.866 11.7667 149.931 12.2333 149.931 12.756C149.8 13.7827 149.39 14.604 148.699 15.22C148.027 15.8173 147.243 16.2 146.347 16.368C145.563 16.5173 144.788 16.4893 144.023 16.284C143.276 16.0787 142.642 15.6867 142.119 15.108C141.988 14.9587 141.876 14.7533 141.783 14.492C141.69 14.2307 141.68 14.044 141.755 13.932C141.867 13.764 142.063 13.652 142.343 13.596C142.623 13.5213 142.838 13.5307 142.987 13.624C143.416 14.016 143.92 14.3053 144.499 14.492C145.078 14.66 145.684 14.6693 146.319 14.52C146.804 14.408 147.196 14.2027 147.495 13.904C147.794 13.5867 147.98 13.232 148.055 12.84C148.148 12.4293 148.092 12.0093 147.887 11.58C147.7 11.132 147.355 10.7307 146.851 10.376C146.086 9.79733 145.264 9.256 144.387 8.752C143.528 8.248 142.651 7.66933 141.755 7.016C141.326 6.64267 141.008 6.232 140.803 5.784C140.616 5.336 140.523 4.89733 140.523 4.468C140.523 4.02 140.616 3.6 140.803 3.208C140.99 2.79733 141.251 2.43333 141.587 2.116C141.923 1.78 142.315 1.50933 142.763 1.304C143.211 1.09867 143.706 0.977333 144.247 0.939999C144.994 0.902666 145.712 1.06133 146.403 1.416C147.094 1.752 147.654 2.172 148.083 2.676C148.176 2.788 148.214 2.928 148.195 3.096C148.195 3.264 148.139 3.42267 148.027 3.572Z" fill="#000E1F"/>
</svg>
