<svg width="122" height="36" viewBox="0 0 122 36" fill="none" xmlns="http://www.w3.org/2000/svg">
<path d="M5.704 4.707C5.76533 4.78367 5.796 4.88333 5.796 5.006C5.81133 5.11333 5.796 5.20533 5.75 5.282C5.67333 5.45067 5.543 5.512 5.359 5.466C5.037 5.38933 4.69967 5.35867 4.347 5.374C3.99433 5.38933 3.64167 5.52733 3.289 5.788C2.93633 6.04867 2.66033 6.432 2.461 6.938C2.26167 7.42867 2.162 7.94233 2.162 8.479C2.162 9.00033 2.28467 9.45267 2.53 9.836C2.79067 10.204 3.12033 10.4723 3.519 10.641C3.76433 10.7483 4.04033 10.8097 4.347 10.825C4.65367 10.8403 4.96033 10.8327 5.267 10.802C5.589 10.756 5.90333 10.6947 6.21 10.618C6.51667 10.526 6.808 10.4263 7.084 10.319C7.176 10.2883 7.26033 10.296 7.337 10.342C7.429 10.388 7.49033 10.4493 7.521 10.526C7.59767 10.7253 7.55933 10.9247 7.406 11.124C7.222 11.3233 6.97667 11.4997 6.67 11.653C6.36333 11.8063 6.026 11.929 5.658 12.021C5.29 12.113 4.91433 12.1667 4.531 12.182C4.14767 12.182 3.78733 12.136 3.45 12.044C2.97467 11.9213 2.56833 11.745 2.231 11.515C1.909 11.2697 1.64067 10.9937 1.426 10.687C1.21133 10.365 1.05033 10.0277 0.943 9.675C0.835667 9.307 0.774333 8.93133 0.759 8.548C0.728333 7.628 0.904667 6.8 1.288 6.064C1.68667 5.328 2.23867 4.78367 2.944 4.431C3.46533 4.17033 3.98667 4.07067 4.508 4.132C5.04467 4.178 5.44333 4.36967 5.704 4.707ZM10.5973 6.317C10.5053 6.731 10.4133 7.191 10.3213 7.697C10.2293 8.18767 10.1603 8.663 10.1143 9.123C10.0836 9.583 10.0836 9.997 10.1143 10.365C10.1603 10.733 10.2599 10.9937 10.4133 11.147C10.6739 11.193 10.9729 11.0857 11.3103 10.825C11.6476 10.549 11.9773 10.204 12.2993 9.79C12.6213 9.376 12.9126 8.93133 13.1733 8.456C13.4339 7.96533 13.6179 7.536 13.7253 7.168C13.7866 6.984 13.8403 6.79233 13.8863 6.593C13.9323 6.39367 13.9553 6.18667 13.9553 5.972C13.9553 5.84933 14.0319 5.73433 14.1853 5.627C14.3539 5.50433 14.4919 5.43533 14.5993 5.42C14.6759 5.40467 14.7603 5.42 14.8523 5.466C14.9596 5.512 15.0516 5.581 15.1283 5.673C15.2203 5.74967 15.2969 5.84933 15.3583 5.972C15.4349 6.07933 15.4733 6.19433 15.4733 6.317C15.5039 6.777 15.5499 7.283 15.6113 7.835C15.6726 8.387 15.7416 8.939 15.8183 9.491C15.9103 10.043 16.0023 10.5797 16.0943 11.101C16.1863 11.6223 16.2783 12.09 16.3703 12.504C16.4163 12.6727 16.3703 12.8643 16.2323 13.079C16.0943 13.2937 15.9409 13.424 15.7723 13.47C15.6343 13.5007 15.4886 13.4853 15.3353 13.424C15.1973 13.3627 15.0899 13.24 15.0133 13.056C14.9366 12.8413 14.8599 12.5807 14.7833 12.274C14.7219 11.952 14.6606 11.6223 14.5993 11.285C14.5533 10.9323 14.5073 10.6027 14.4613 10.296C14.4153 9.974 14.3846 9.70567 14.3693 9.491C14.1393 9.905 13.8633 10.3267 13.5413 10.756C13.2346 11.17 12.8973 11.5533 12.5293 11.906C12.1766 12.2433 11.8009 12.5117 11.4022 12.711C11.0189 12.895 10.6203 12.964 10.2063 12.918C9.59292 12.8413 9.12525 12.2663 8.80325 11.193C8.68058 10.7637 8.61925 10.2883 8.61925 9.767C8.63458 9.24567 8.67292 8.732 8.73425 8.226C8.81092 7.70467 8.89525 7.214 8.98725 6.754C9.09458 6.294 9.18658 5.91833 9.26325 5.627C9.29392 5.50433 9.35525 5.397 9.44725 5.305C9.53925 5.19767 9.64658 5.15933 9.76925 5.19C9.99925 5.236 10.2063 5.374 10.3903 5.604C10.5896 5.834 10.6586 6.07167 10.5973 6.317ZM22.1238 6.248C22.0932 6.07933 22.0625 5.91833 22.0318 5.765C22.0012 5.61167 21.9245 5.512 21.8018 5.466C21.5412 5.38933 21.2652 5.38167 20.9738 5.443C20.6825 5.50433 20.4142 5.604 20.1688 5.742C19.9235 5.86467 19.7165 6.01033 19.5478 6.179C19.3792 6.33233 19.2872 6.47033 19.2718 6.593C19.2258 6.823 19.2872 7.04533 19.4558 7.26C19.6245 7.47467 19.8698 7.68933 20.1918 7.904C20.7285 8.226 21.2882 8.55567 21.8708 8.893C22.4535 9.23033 22.9442 9.57533 23.3428 9.928C23.7415 10.2807 24.0098 10.6717 24.1478 11.101C24.3012 11.515 24.2705 11.9903 24.0558 12.527C23.8872 12.941 23.5728 13.2783 23.1128 13.539C22.6528 13.7997 22.1468 14.0067 21.5948 14.16C21.0428 14.298 20.4908 14.3977 19.9388 14.459C19.3868 14.505 18.9192 14.528 18.5358 14.528C18.4438 14.528 18.3288 14.4973 18.1908 14.436C18.0682 14.3593 17.9455 14.275 17.8228 14.183C17.7155 14.091 17.6158 13.999 17.5238 13.907C17.4472 13.7997 17.4088 13.7077 17.4088 13.631C17.4088 13.355 17.5315 13.1633 17.7768 13.056C18.0222 12.9487 18.2752 12.895 18.5358 12.895C18.9038 12.895 19.2948 12.8797 19.7088 12.849C20.1382 12.803 20.5445 12.7417 20.9278 12.665C21.3112 12.573 21.6562 12.458 21.9628 12.32C22.2695 12.182 22.4842 12.0057 22.6068 11.791C22.7142 11.607 22.6452 11.3923 22.3998 11.147C22.1698 10.8863 21.8555 10.618 21.4568 10.342C21.0735 10.066 20.6518 9.79767 20.1918 9.537C19.7472 9.27633 19.3638 9.03867 19.0418 8.824C18.7198 8.60933 18.4438 8.35633 18.2138 8.065C17.9838 7.75833 17.8382 7.38267 17.7768 6.938C17.7615 6.53933 17.8458 6.156 18.0298 5.788C18.2138 5.42 18.4515 5.098 18.7428 4.822C19.0495 4.53067 19.3945 4.30067 19.7778 4.132C20.1612 3.96333 20.5445 3.879 20.9278 3.879C21.5872 3.90967 22.1315 4.09367 22.5608 4.431C22.9902 4.753 23.2432 5.236 23.3198 5.88C23.3198 6.09467 23.2815 6.271 23.2048 6.409C23.1435 6.547 23.0285 6.63133 22.8598 6.662C22.6452 6.69267 22.4688 6.66967 22.3308 6.593C22.2082 6.501 22.1392 6.386 22.1238 6.248ZM30.6078 6.961C30.8991 6.94567 31.1905 7.01467 31.4818 7.168C31.7731 7.32133 31.9188 7.559 31.9188 7.881C31.8881 8.14167 31.7425 8.31033 31.4818 8.387C31.2365 8.44833 31.0371 8.479 30.8838 8.479C30.5771 8.479 30.2475 8.48667 29.8948 8.502C29.5421 8.51733 29.1818 8.54033 28.8138 8.571C28.7831 9.077 28.7525 9.55233 28.7218 9.997C28.7065 10.4417 28.6911 10.8403 28.6758 11.193C28.6605 11.5303 28.6528 11.8063 28.6528 12.021C28.6528 12.2357 28.6605 12.3507 28.6758 12.366C29.0131 12.3047 29.3735 12.205 29.7568 12.067C30.1555 11.9137 30.5465 11.7527 30.9298 11.584C31.3285 11.4 31.7118 11.216 32.0798 11.032C32.4631 10.8327 32.8235 10.6487 33.1608 10.48C33.3141 10.4033 33.4521 10.3803 33.5748 10.411C33.7128 10.4417 33.7971 10.5107 33.8278 10.618C33.8585 10.7867 33.8355 10.9937 33.7588 11.239C33.6821 11.4843 33.5441 11.7067 33.3448 11.906C33.1148 12.09 32.8081 12.3047 32.4248 12.55C32.0568 12.78 31.6581 13.0023 31.2288 13.217C30.7995 13.4317 30.3625 13.6233 29.9178 13.792C29.4885 13.9453 29.1051 14.0373 28.7678 14.068C28.2618 14.114 27.8785 13.976 27.6178 13.654C27.3571 13.332 27.2115 12.9257 27.1808 12.435C27.1501 11.9443 27.1425 11.377 27.1578 10.733C27.1885 10.089 27.2191 9.40667 27.2498 8.686C26.9585 8.71667 26.6748 8.74733 26.3988 8.778C26.1381 8.79333 25.8851 8.81633 25.6398 8.847C25.4405 8.847 25.2181 8.801 24.9728 8.709C24.7428 8.617 24.6278 8.44067 24.6278 8.18C24.6278 8.088 24.6661 7.96533 24.7428 7.812C24.8195 7.65867 24.9881 7.54367 25.2488 7.467C25.8775 7.35967 26.5751 7.26767 27.3418 7.191C27.3878 6.47033 27.4415 5.77267 27.5028 5.098C27.5641 4.42333 27.6178 3.81 27.6638 3.258C27.6791 3.074 27.7328 2.913 27.8248 2.775C27.9168 2.637 28.0165 2.568 28.1238 2.568C28.3845 2.55267 28.6298 2.62167 28.8598 2.775C29.1051 2.913 29.2278 3.074 29.2278 3.258C29.1665 3.77933 29.1051 4.36967 29.0438 5.029C28.9978 5.68833 28.9518 6.363 28.9058 7.053C29.2125 7.02233 29.5038 7.007 29.7798 7.007C30.0711 6.99167 30.3471 6.97633 30.6078 6.961ZM39.8355 5.098C40.2955 5.26667 40.6788 5.51967 40.9855 5.857C41.3075 6.19433 41.5528 6.57767 41.7215 7.007C41.8901 7.421 41.9821 7.85033 41.9975 8.295C42.0281 8.73967 41.9821 9.15367 41.8595 9.537C41.6908 9.96633 41.4761 10.388 41.2155 10.802C40.9548 11.216 40.6558 11.584 40.3185 11.906C39.9811 12.228 39.5978 12.4887 39.1685 12.688C38.7391 12.8873 38.2638 12.987 37.7425 12.987C37.1138 12.987 36.5848 12.8413 36.1555 12.55C35.7261 12.2587 35.3888 11.883 35.1435 11.423C34.8981 10.963 34.7371 10.4417 34.6605 9.859C34.5991 9.27633 34.6145 8.69367 34.7065 8.111C34.7678 7.68167 34.8675 7.26767 35.0055 6.869C35.1588 6.455 35.3505 6.09467 35.5805 5.788C35.8105 5.466 36.0711 5.20533 36.3625 5.006C36.6691 4.80667 37.0141 4.707 37.3975 4.707C37.6121 4.707 37.8805 4.753 38.2025 4.845C38.5245 4.92167 38.8235 5.03667 39.0995 5.19C39.2988 5.006 39.5441 4.97533 39.8355 5.098ZM38.9615 6.777C38.7928 6.66967 38.5935 6.53167 38.3635 6.363C38.1488 6.179 37.9571 6.087 37.7885 6.087C37.6045 6.087 37.4205 6.17133 37.2365 6.34C37.0678 6.50867 36.9145 6.708 36.7765 6.938C36.6538 7.15267 36.5465 7.375 36.4545 7.605C36.3625 7.835 36.3011 8.019 36.2705 8.157C36.2245 8.387 36.1938 8.663 36.1785 8.985C36.1631 9.307 36.1861 9.629 36.2475 9.951C36.3088 10.2577 36.4238 10.5413 36.5925 10.802C36.7765 11.0473 37.0448 11.2237 37.3975 11.331C37.6121 11.3923 37.8651 11.3923 38.1565 11.331C38.4478 11.2543 38.7315 11.124 39.0075 10.94C39.2988 10.756 39.5671 10.5107 39.8125 10.204C40.0731 9.89733 40.2725 9.54467 40.4105 9.146C40.5638 8.70133 40.5638 8.24133 40.4105 7.766C40.2725 7.27533 39.9811 6.92267 39.5365 6.708C39.4291 6.78467 39.3218 6.823 39.2145 6.823C39.1071 6.823 39.0228 6.80767 38.9615 6.777ZM44.9943 5.696C45.0096 5.94133 45.0326 6.248 45.0633 6.616C45.1093 6.96867 45.1553 7.34433 45.2013 7.743C45.2473 8.12633 45.2933 8.50967 45.3393 8.893C45.4006 9.27633 45.4543 9.629 45.5003 9.951C45.669 9.61367 45.876 9.19967 46.1213 8.709C46.3666 8.21833 46.6196 7.75067 46.8803 7.306C47.1563 6.846 47.4323 6.46267 47.7083 6.156C47.9996 5.834 48.2603 5.673 48.4903 5.673C48.7356 5.673 48.958 5.79567 49.1573 6.041C49.372 6.271 49.556 6.55467 49.7093 6.892C49.8626 7.22933 49.993 7.58967 50.1003 7.973C50.223 8.35633 50.3226 8.69367 50.3993 8.985C50.4606 8.78567 50.5373 8.56333 50.6293 8.318C50.7366 8.05733 50.844 7.79667 50.9513 7.536C51.074 7.26 51.2043 6.99167 51.3423 6.731C51.4956 6.47033 51.6566 6.24033 51.8253 6.041C52.0246 5.82633 52.2393 5.673 52.4693 5.581C52.6993 5.47367 52.868 5.42 52.9753 5.42C53.1133 5.42 53.2743 5.466 53.4583 5.558C53.6576 5.63467 53.857 5.742 54.0563 5.88C54.2556 6.018 54.4396 6.18667 54.6083 6.386C54.7923 6.57 54.938 6.76167 55.0453 6.961C55.26 7.375 55.4286 7.82733 55.5513 8.318C55.6893 8.80867 55.789 9.27633 55.8503 9.721C55.9116 10.1657 55.95 10.5643 55.9653 10.917C55.996 11.2543 56.019 11.492 56.0343 11.63C56.0343 11.8293 56.0113 11.9827 55.9653 12.09C55.9193 12.182 55.835 12.2587 55.7123 12.32C55.5436 12.3967 55.398 12.4273 55.2753 12.412C55.1526 12.3813 55.053 12.3277 54.9763 12.251C54.8996 12.1743 54.8383 12.09 54.7923 11.998C54.7463 11.8907 54.7156 11.7987 54.7003 11.722C54.6543 11.3693 54.6006 11.009 54.5393 10.641C54.4933 10.273 54.4396 9.92033 54.3783 9.583C54.317 9.23033 54.2403 8.90833 54.1483 8.617C54.0716 8.31033 53.9873 8.042 53.8953 7.812C53.8646 7.75067 53.811 7.674 53.7343 7.582C53.673 7.47467 53.5963 7.375 53.5043 7.283C53.4276 7.191 53.351 7.11433 53.2743 7.053C53.1976 6.99167 53.144 6.95333 53.1133 6.938C52.96 6.938 52.799 7.08367 52.6303 7.375C52.4616 7.651 52.3006 7.98833 52.1473 8.387C51.994 8.78567 51.8483 9.20733 51.7103 9.652C51.5876 10.0813 51.4956 10.4493 51.4343 10.756C51.4343 11.1547 51.3576 11.4537 51.2043 11.653C51.051 11.837 50.89 11.929 50.7213 11.929C50.5526 11.929 50.3686 11.8677 50.1693 11.745C49.9853 11.607 49.8626 11.4537 49.8013 11.285C49.7093 11.0397 49.6096 10.7637 49.5023 10.457C49.395 10.1503 49.28 9.836 49.1573 9.514C49.05 9.192 48.935 8.87767 48.8123 8.571C48.705 8.26433 48.5976 7.98833 48.4903 7.743C48.2756 8.03433 48.061 8.35633 47.8463 8.709C47.647 9.06167 47.4476 9.422 47.2483 9.79C47.0643 10.158 46.8803 10.526 46.6963 10.894C46.5276 11.2467 46.3666 11.561 46.2133 11.837C46.106 12.0057 45.991 12.159 45.8683 12.297C45.7456 12.4197 45.6 12.481 45.4313 12.481C45.3086 12.481 45.1783 12.4273 45.0403 12.32C44.9023 12.1973 44.772 12.0517 44.6493 11.883C44.5266 11.7143 44.4116 11.5227 44.3043 11.308C44.2123 11.0933 44.1433 10.8787 44.0973 10.664C43.9746 10.0047 43.8673 9.284 43.7753 8.502C43.6986 7.70467 43.622 6.93033 43.5453 6.179C43.53 5.91833 43.5606 5.68067 43.6373 5.466C43.7293 5.236 43.898 5.08267 44.1433 5.006C44.404 4.96 44.6033 4.99833 44.7413 5.121C44.8793 5.24367 44.9636 5.43533 44.9943 5.696ZM61.5334 3.741C61.5028 3.89433 61.3954 3.97867 61.2114 3.994C61.0274 4.00933 60.8741 4.017 60.7514 4.017C60.3681 4.03233 59.9694 4.07067 59.5554 4.132C59.1568 4.19333 58.7351 4.28533 58.2904 4.408C58.1064 4.46933 57.9071 4.44633 57.6924 4.339C57.4778 4.23167 57.3474 4.017 57.3014 3.695C57.3014 3.57233 57.3474 3.47267 57.4394 3.396C57.5314 3.31933 57.6388 3.25033 57.7614 3.189C57.9608 3.097 58.1984 3.02033 58.4744 2.959C58.7504 2.88233 59.0264 2.82867 59.3024 2.798C59.5938 2.76733 59.8698 2.75967 60.1304 2.775C60.3911 2.775 60.6058 2.798 60.7744 2.844C61.0198 2.92067 61.2114 3.03567 61.3494 3.189C61.5028 3.34233 61.5641 3.52633 61.5334 3.741ZM61.0044 11.4C61.1118 11.6453 61.1654 11.9137 61.1654 12.205C61.1808 12.481 61.1041 12.6727 60.9354 12.78C60.7208 12.918 60.4908 12.9103 60.2454 12.757C60.0001 12.6037 59.8161 12.3967 59.6934 12.136C59.5248 11.814 59.3944 11.423 59.3024 10.963C59.2104 10.4877 59.1414 10.02 59.0954 9.56C59.0494 9.1 59.0188 8.67067 59.0034 8.272C59.0034 7.87333 59.0034 7.57433 59.0034 7.375C59.0188 7.16033 59.0801 6.961 59.1874 6.777C59.2948 6.593 59.4328 6.48567 59.6014 6.455C59.8774 6.47033 60.0998 6.60067 60.2684 6.846C60.4371 7.076 60.5138 7.36733 60.4984 7.72C60.4984 7.996 60.5061 8.30267 60.5214 8.64C60.5368 8.97733 60.5674 9.31467 60.6134 9.652C60.6594 9.98933 60.7131 10.319 60.7744 10.641C60.8358 10.9477 60.9124 11.2007 61.0044 11.4ZM67.3108 6.248C67.2801 6.07933 67.2494 5.91833 67.2188 5.765C67.1881 5.61167 67.1114 5.512 66.9888 5.466C66.7281 5.38933 66.4521 5.38167 66.1608 5.443C65.8694 5.50433 65.6011 5.604 65.3558 5.742C65.1104 5.86467 64.9034 6.01033 64.7348 6.179C64.5661 6.33233 64.4741 6.47033 64.4588 6.593C64.4128 6.823 64.4741 7.04533 64.6428 7.26C64.8114 7.47467 65.0568 7.68933 65.3788 7.904C65.9154 8.226 66.4751 8.55567 67.0578 8.893C67.6404 9.23033 68.1311 9.57533 68.5298 9.928C68.9284 10.2807 69.1968 10.6717 69.3348 11.101C69.4881 11.515 69.4574 11.9903 69.2428 12.527C69.0741 12.941 68.7598 13.2783 68.2998 13.539C67.8398 13.7997 67.3338 14.0067 66.7818 14.16C66.2298 14.298 65.6778 14.3977 65.1258 14.459C64.5738 14.505 64.1061 14.528 63.7228 14.528C63.6308 14.528 63.5158 14.4973 63.3778 14.436C63.2551 14.3593 63.1324 14.275 63.0098 14.183C62.9024 14.091 62.8028 13.999 62.7108 13.907C62.6341 13.7997 62.5958 13.7077 62.5958 13.631C62.5958 13.355 62.7184 13.1633 62.9638 13.056C63.2091 12.9487 63.4621 12.895 63.7228 12.895C64.0908 12.895 64.4818 12.8797 64.8958 12.849C65.3251 12.803 65.7314 12.7417 66.1148 12.665C66.4981 12.573 66.8431 12.458 67.1498 12.32C67.4564 12.182 67.6711 12.0057 67.7938 11.791C67.9011 11.607 67.8321 11.3923 67.5868 11.147C67.3568 10.8863 67.0424 10.618 66.6438 10.342C66.2604 10.066 65.8388 9.79767 65.3788 9.537C64.9341 9.27633 64.5508 9.03867 64.2288 8.824C63.9068 8.60933 63.6308 8.35633 63.4008 8.065C63.1708 7.75833 63.0251 7.38267 62.9638 6.938C62.9484 6.53933 63.0328 6.156 63.2168 5.788C63.4008 5.42 63.6384 5.098 63.9298 4.822C64.2364 4.53067 64.5814 4.30067 64.9648 4.132C65.3481 3.96333 65.7314 3.879 66.1148 3.879C66.7741 3.90967 67.3184 4.09367 67.7478 4.431C68.1771 4.753 68.4301 5.236 68.5068 5.88C68.5068 6.09467 68.4684 6.271 68.3918 6.409C68.3304 6.547 68.2154 6.63133 68.0468 6.662C67.8321 6.69267 67.6558 6.66967 67.5178 6.593C67.3951 6.501 67.3261 6.386 67.3108 6.248ZM76.1397 7.72C75.5417 8.07267 74.8977 8.34867 74.2077 8.548C73.5177 8.732 72.774 8.824 71.9767 8.824C72.0074 9.36067 72.1607 9.79 72.4367 10.112C72.7127 10.4187 73.0577 10.6027 73.4717 10.664C73.717 10.6947 73.9624 10.687 74.2077 10.641C74.4684 10.595 74.706 10.526 74.9207 10.434C75.1507 10.3267 75.3577 10.2117 75.5417 10.089C75.7257 9.96633 75.8867 9.84367 76.0247 9.721C76.1627 9.59833 76.3084 9.52167 76.4617 9.491C76.615 9.445 76.73 9.43733 76.8067 9.468C77.0214 9.54467 77.098 9.77467 77.0367 10.158C76.7914 10.6487 76.4387 11.0703 75.9787 11.423C75.5187 11.7603 75.005 11.975 74.4377 12.067C73.947 12.159 73.441 12.136 72.9197 11.998C72.3984 11.86 71.9307 11.5917 71.5167 11.193C71.164 10.8403 70.8957 10.4263 70.7117 9.951C70.5277 9.47567 70.4127 8.985 70.3667 8.479C70.3207 8.00367 70.359 7.55133 70.4817 7.122C70.6197 6.69267 70.8267 6.317 71.1027 5.995C71.3787 5.65767 71.7237 5.38167 72.1377 5.167C72.5517 4.95233 73.0347 4.82967 73.5867 4.799C74.246 4.753 74.844 4.87567 75.3807 5.167C75.9174 5.45833 76.293 5.86467 76.5077 6.386C76.6304 6.67733 76.661 6.93033 76.5997 7.145C76.5537 7.35967 76.4004 7.55133 76.1397 7.72ZM73.4947 6.156C73.3414 6.18667 73.1727 6.24033 72.9887 6.317C72.82 6.39367 72.659 6.49333 72.5057 6.616C72.3677 6.72333 72.2374 6.85367 72.1147 7.007C72.0074 7.145 71.946 7.306 71.9307 7.49C72.1914 7.49 72.475 7.467 72.7817 7.421C73.1037 7.375 73.4104 7.32133 73.7017 7.26C74.0084 7.18333 74.2844 7.099 74.5297 7.007C74.7904 6.915 75.005 6.81533 75.1737 6.708C75.051 6.41667 74.821 6.24033 74.4837 6.179C74.1617 6.10233 73.832 6.09467 73.4947 6.156ZM88.8095 6.777C88.9321 6.94567 89.0471 7.16033 89.1545 7.421C89.2771 7.66633 89.3691 7.91933 89.4305 8.18C89.5225 8.594 89.6221 9.04633 89.7295 9.537C89.8521 10.0123 89.9671 10.5107 90.0745 11.032C90.1971 11.5533 90.3045 12.0823 90.3965 12.619C90.5038 13.1557 90.5958 13.6693 90.6725 14.16C90.7645 14.8347 90.7108 15.4787 90.5115 16.092C90.3275 16.7207 90.0131 17.2803 89.5685 17.771C89.1238 18.2617 88.5718 18.6527 87.9125 18.944C87.2531 19.2353 86.5095 19.3963 85.6815 19.427C85.4975 19.4117 85.3058 19.3197 85.1065 19.151C84.9071 18.9977 84.8075 18.8367 84.8075 18.668C84.7921 18.4993 84.8688 18.3613 85.0375 18.254C85.2215 18.162 85.4055 18.1007 85.5895 18.07C85.9115 18.0393 86.2411 17.9703 86.5785 17.863C86.9311 17.771 87.2608 17.633 87.5675 17.449C87.8741 17.265 88.1501 17.0427 88.3955 16.782C88.6561 16.5213 88.8555 16.2147 88.9935 15.862C89.1008 15.586 89.1545 15.2487 89.1545 14.85C89.1545 14.436 89.1238 14.0297 89.0625 13.631C89.0165 13.2323 88.9475 12.8567 88.8555 12.504C88.7788 12.136 88.7098 11.86 88.6485 11.676C88.5411 11.7833 88.4031 11.8983 88.2345 12.021C88.0811 12.1437 87.9048 12.2587 87.7055 12.366C87.5061 12.4733 87.2838 12.5577 87.0385 12.619C86.8085 12.6803 86.5708 12.7033 86.3255 12.688C86.0648 12.6727 85.8195 12.5807 85.5895 12.412C85.3748 12.2433 85.1831 12.0287 85.0145 11.768C84.8458 11.492 84.7078 11.1777 84.6005 10.825C84.5085 10.4723 84.4625 10.1043 84.4625 9.721C84.4931 8.801 84.7231 7.98833 85.1525 7.283C85.5971 6.56233 86.3025 6.00267 87.2685 5.604C87.3451 5.58867 87.4448 5.57333 87.5675 5.558C87.7055 5.54267 87.8435 5.54267 87.9815 5.558C88.1195 5.558 88.2498 5.57333 88.3725 5.604C88.5105 5.63467 88.6255 5.68067 88.7175 5.742C88.8861 5.86467 88.9705 6.041 88.9705 6.271C88.9705 6.501 88.9168 6.66967 88.8095 6.777ZM85.9115 9.928C85.9115 10.0967 85.9268 10.2883 85.9575 10.503C85.9881 10.7023 86.0878 10.848 86.2565 10.94C86.4405 11.0473 86.6628 11.0627 86.9235 10.986C87.1995 10.9093 87.4525 10.779 87.6825 10.595C87.8971 10.4263 88.0351 10.2423 88.0965 10.043C88.1731 9.82833 88.1731 9.54467 88.0965 9.192C88.0198 8.83933 87.9355 8.47133 87.8435 8.088C87.7515 7.70467 87.6901 7.35967 87.6595 7.053C87.4755 7.145 87.2761 7.27533 87.0615 7.444C86.8621 7.61267 86.6781 7.82733 86.5095 8.088C86.3408 8.33333 86.1951 8.60933 86.0725 8.916C85.9651 9.22267 85.9115 9.56 85.9115 9.928ZM96.0514 3.741C96.0207 3.89433 95.9134 3.97867 95.7294 3.994C95.5454 4.00933 95.3921 4.017 95.2694 4.017C94.8861 4.03233 94.4874 4.07067 94.0734 4.132C93.6747 4.19333 93.2531 4.28533 92.8084 4.408C92.6244 4.46933 92.4251 4.44633 92.2104 4.339C91.9957 4.23167 91.8654 4.017 91.8194 3.695C91.8194 3.57233 91.8654 3.47267 91.9574 3.396C92.0494 3.31933 92.1567 3.25033 92.2794 3.189C92.4787 3.097 92.7164 3.02033 92.9924 2.959C93.2684 2.88233 93.5444 2.82867 93.8204 2.798C94.1117 2.76733 94.3877 2.75967 94.6484 2.775C94.9091 2.775 95.1237 2.798 95.2924 2.844C95.5377 2.92067 95.7294 3.03567 95.8674 3.189C96.0207 3.34233 96.0821 3.52633 96.0514 3.741ZM95.5224 11.4C95.6297 11.6453 95.6834 11.9137 95.6834 12.205C95.6987 12.481 95.6221 12.6727 95.4534 12.78C95.2387 12.918 95.0087 12.9103 94.7634 12.757C94.5181 12.6037 94.3341 12.3967 94.2114 12.136C94.0427 11.814 93.9124 11.423 93.8204 10.963C93.7284 10.4877 93.6594 10.02 93.6134 9.56C93.5674 9.1 93.5367 8.67067 93.5214 8.272C93.5214 7.87333 93.5214 7.57433 93.5214 7.375C93.5367 7.16033 93.5981 6.961 93.7054 6.777C93.8127 6.593 93.9507 6.48567 94.1194 6.455C94.3954 6.47033 94.6177 6.60067 94.7864 6.846C94.9551 7.076 95.0317 7.36733 95.0164 7.72C95.0164 7.996 95.0241 8.30267 95.0394 8.64C95.0547 8.97733 95.0854 9.31467 95.1314 9.652C95.1774 9.98933 95.2311 10.319 95.2924 10.641C95.3537 10.9477 95.4304 11.2007 95.5224 11.4ZM98.3327 8.939C98.1181 8.96967 97.8651 8.94667 97.5737 8.87C97.2977 8.79333 97.1061 8.60167 96.9987 8.295C96.9527 8.14167 96.9451 7.996 96.9757 7.858C97.0064 7.70467 97.1674 7.59733 97.4587 7.536C97.7347 7.47467 98.0261 7.421 98.3327 7.375C98.6547 7.31367 98.9767 7.26 99.2987 7.214L98.4477 4.638C98.1871 3.65667 98.1564 2.81333 98.3557 2.108C98.5551 1.40267 99.1224 0.896666 100.058 0.59C100.441 0.467333 100.817 0.421332 101.185 0.451999C101.568 0.482666 101.928 0.582333 102.266 0.750999C102.603 0.919666 102.91 1.142 103.186 1.418C103.462 1.694 103.684 2.016 103.853 2.384C103.914 2.55267 103.945 2.706 103.945 2.844C103.96 2.96667 103.914 3.08167 103.807 3.189C103.653 3.34233 103.485 3.41133 103.301 3.396C103.117 3.36533 102.994 3.31167 102.933 3.235C102.795 3.06633 102.641 2.89767 102.473 2.729C102.319 2.545 102.151 2.39167 101.967 2.269C101.798 2.131 101.614 2.03133 101.415 1.97C101.215 1.89333 101.001 1.87033 100.771 1.901C100.663 1.91633 100.533 1.97 100.38 2.062C100.242 2.154 100.119 2.29967 100.012 2.499C99.9044 2.683 99.8354 2.92833 99.8047 3.235C99.7894 3.54167 99.8431 3.925 99.9657 4.385C100.073 4.76833 100.196 5.18233 100.334 5.627C100.472 6.07167 100.625 6.53933 100.794 7.03C101.53 6.95333 102.204 6.93033 102.818 6.961C103.155 6.99167 103.469 7.053 103.761 7.145C104.052 7.237 104.29 7.375 104.474 7.559C104.52 7.71233 104.512 7.84267 104.451 7.95C104.389 8.042 104.297 8.12633 104.175 8.203C104.067 8.26433 103.937 8.31033 103.784 8.341C103.646 8.37167 103.508 8.39467 103.37 8.41C103.063 8.44067 102.741 8.479 102.404 8.525C102.066 8.55567 101.714 8.58633 101.346 8.617C101.591 9.307 101.813 9.96633 102.013 10.595C102.227 11.2083 102.396 11.722 102.519 12.136C102.58 12.366 102.588 12.6113 102.542 12.872C102.496 13.1327 102.434 13.3857 102.358 13.631C102.235 13.9837 102.082 14.2673 101.898 14.482C101.714 14.6967 101.514 14.7657 101.3 14.689C101.131 14.6123 101.024 14.5127 100.978 14.39C100.932 14.2673 100.924 14.0987 100.955 13.884C100.985 13.6387 101.001 13.3933 101.001 13.148C101.001 12.9027 100.985 12.6803 100.955 12.481C100.939 12.2663 100.909 12.0823 100.863 11.929C100.832 11.7603 100.809 11.6453 100.794 11.584L99.8277 8.778C99.5824 8.80867 99.3371 8.83933 99.0917 8.87C98.8464 8.88533 98.5934 8.90833 98.3327 8.939ZM111.054 6.961C111.345 6.94567 111.637 7.01467 111.928 7.168C112.219 7.32133 112.365 7.559 112.365 7.881C112.334 8.14167 112.189 8.31033 111.928 8.387C111.683 8.44833 111.483 8.479 111.33 8.479C111.023 8.479 110.694 8.48667 110.341 8.502C109.988 8.51733 109.628 8.54033 109.26 8.571C109.229 9.077 109.199 9.55233 109.168 9.997C109.153 10.4417 109.137 10.8403 109.122 11.193C109.107 11.5303 109.099 11.8063 109.099 12.021C109.099 12.2357 109.107 12.3507 109.122 12.366C109.459 12.3047 109.82 12.205 110.203 12.067C110.602 11.9137 110.993 11.7527 111.376 11.584C111.775 11.4 112.158 11.216 112.526 11.032C112.909 10.8327 113.27 10.6487 113.607 10.48C113.76 10.4033 113.898 10.3803 114.021 10.411C114.159 10.4417 114.243 10.5107 114.274 10.618C114.305 10.7867 114.282 10.9937 114.205 11.239C114.128 11.4843 113.99 11.7067 113.791 11.906C113.561 12.09 113.254 12.3047 112.871 12.55C112.503 12.78 112.104 13.0023 111.675 13.217C111.246 13.4317 110.809 13.6233 110.364 13.792C109.935 13.9453 109.551 14.0373 109.214 14.068C108.708 14.114 108.325 13.976 108.064 13.654C107.803 13.332 107.658 12.9257 107.627 12.435C107.596 11.9443 107.589 11.377 107.604 10.733C107.635 10.089 107.665 9.40667 107.696 8.686C107.405 8.71667 107.121 8.74733 106.845 8.778C106.584 8.79333 106.331 8.81633 106.086 8.847C105.887 8.847 105.664 8.801 105.419 8.709C105.189 8.617 105.074 8.44067 105.074 8.18C105.074 8.088 105.112 7.96533 105.189 7.812C105.266 7.65867 105.434 7.54367 105.695 7.467C106.324 7.35967 107.021 7.26767 107.788 7.191C107.834 6.47033 107.888 5.77267 107.949 5.098C108.01 4.42333 108.064 3.81 108.11 3.258C108.125 3.074 108.179 2.913 108.271 2.775C108.363 2.637 108.463 2.568 108.57 2.568C108.831 2.55267 109.076 2.62167 109.306 2.775C109.551 2.913 109.674 3.074 109.674 3.258C109.613 3.77933 109.551 4.36967 109.49 5.029C109.444 5.68833 109.398 6.363 109.352 7.053C109.659 7.02233 109.95 7.007 110.226 7.007C110.517 6.99167 110.793 6.97633 111.054 6.961ZM119.293 6.248C119.262 6.07933 119.231 5.91833 119.201 5.765C119.17 5.61167 119.093 5.512 118.971 5.466C118.71 5.38933 118.434 5.38167 118.143 5.443C117.851 5.50433 117.583 5.604 117.338 5.742C117.092 5.86467 116.885 6.01033 116.717 6.179C116.548 6.33233 116.456 6.47033 116.441 6.593C116.395 6.823 116.456 7.04533 116.625 7.26C116.793 7.47467 117.039 7.68933 117.361 7.904C117.897 8.226 118.457 8.55567 119.04 8.893C119.622 9.23033 120.113 9.57533 120.512 9.928C120.91 10.2807 121.179 10.6717 121.317 11.101C121.47 11.515 121.439 11.9903 121.225 12.527C121.056 12.941 120.742 13.2783 120.282 13.539C119.822 13.7997 119.316 14.0067 118.764 14.16C118.212 14.298 117.66 14.3977 117.108 14.459C116.556 14.505 116.088 14.528 115.705 14.528C115.613 14.528 115.498 14.4973 115.36 14.436C115.237 14.3593 115.114 14.275 114.992 14.183C114.884 14.091 114.785 13.999 114.693 13.907C114.616 13.7997 114.578 13.7077 114.578 13.631C114.578 13.355 114.7 13.1633 114.946 13.056C115.191 12.9487 115.444 12.895 115.705 12.895C116.073 12.895 116.464 12.8797 116.878 12.849C117.307 12.803 117.713 12.7417 118.097 12.665C118.48 12.573 118.825 12.458 119.132 12.32C119.438 12.182 119.653 12.0057 119.776 11.791C119.883 11.607 119.814 11.3923 119.569 11.147C119.339 10.8863 119.024 10.618 118.626 10.342C118.242 10.066 117.821 9.79767 117.361 9.537C116.916 9.27633 116.533 9.03867 116.211 8.824C115.889 8.60933 115.613 8.35633 115.383 8.065C115.153 7.75833 115.007 7.38267 114.946 6.938C114.93 6.53933 115.015 6.156 115.199 5.788C115.383 5.42 115.62 5.098 115.912 4.822C116.218 4.53067 116.563 4.30067 116.947 4.132C117.33 3.96333 117.713 3.879 118.097 3.879C118.756 3.90967 119.3 4.09367 119.73 4.431C120.159 4.753 120.412 5.236 120.489 5.88C120.489 6.09467 120.45 6.271 120.374 6.409C120.312 6.547 120.197 6.63133 120.029 6.662C119.814 6.69267 119.638 6.66967 119.5 6.593C119.377 6.501 119.308 6.386 119.293 6.248ZM6.233 28.214C6.12567 28.2753 5.99533 28.2983 5.842 28.283C5.68867 28.2523 5.55833 28.1527 5.451 27.984C5.20567 27.662 4.90667 27.501 4.554 27.501C4.232 27.501 3.94067 27.5777 3.68 27.731C3.43467 27.869 3.21233 28.0607 3.013 28.306C2.829 28.536 2.67567 28.7967 2.553 29.088C2.43033 29.3793 2.346 29.6707 2.3 29.962C2.22333 30.4987 2.31533 30.951 2.576 31.319C2.83667 31.687 3.243 31.871 3.795 31.871C4.23967 31.8863 4.738 31.802 5.29 31.618C5.85733 31.4187 6.38633 31.1657 6.877 30.859C7.09167 30.767 7.291 30.7133 7.475 30.698C7.659 30.6827 7.81233 30.7747 7.935 30.974C8.08833 31.2193 8.05 31.4723 7.82 31.733C7.59 31.9783 7.28333 32.2007 6.9 32.4C6.51667 32.6147 6.11033 32.8063 5.681 32.975C5.267 33.1283 4.84533 33.2433 4.416 33.32C3.98667 33.3813 3.55733 33.3813 3.128 33.32C2.714 33.2587 2.323 33.113 1.955 32.883C1.37233 32.4843 1.01967 31.917 0.897 31.181C0.774333 30.445 0.828 29.686 1.058 28.904C1.15 28.6127 1.28033 28.3213 1.449 28.03C1.61767 27.7233 1.817 27.4473 2.047 27.202C2.29233 26.9567 2.56067 26.7497 2.852 26.581C3.14333 26.397 3.46533 26.2743 3.818 26.213C4.38533 26.121 4.92967 26.1823 5.451 26.397C5.97233 26.5963 6.31733 26.972 6.486 27.524C6.51667 27.6467 6.51667 27.777 6.486 27.915C6.45533 28.0377 6.371 28.1373 6.233 28.214ZM14.796 25.615C14.8573 26.0443 14.9033 26.5043 14.934 26.995C14.98 27.4703 15.0107 27.9533 15.026 28.444C15.0567 28.9347 15.072 29.41 15.072 29.87C15.072 30.33 15.0643 30.744 15.049 31.112C15.5397 31.4493 15.831 31.7483 15.923 32.009C16.0303 32.2697 16.0457 32.4997 15.969 32.699C15.877 32.975 15.7083 33.1207 15.463 33.136C15.233 33.136 14.9647 33.0517 14.658 32.883C14.4433 33.0363 14.198 33.205 13.922 33.389C13.646 33.5577 13.3547 33.7263 13.048 33.895C12.7413 34.0483 12.4347 34.1863 12.128 34.309C11.8213 34.4317 11.5377 34.516 11.277 34.562C10.7863 34.6387 10.3417 34.5467 9.94301 34.286C9.55968 34.0253 9.29901 33.6343 9.16101 33.113C9.06901 32.7603 9.04601 32.4 9.09201 32.032C9.13801 31.6487 9.25301 31.2883 9.43701 30.951C9.62101 30.5983 9.86634 30.284 10.173 30.008C10.495 29.732 10.8707 29.5173 11.3 29.364C11.4073 29.318 11.553 29.2797 11.737 29.249C11.9363 29.2183 12.1357 29.2107 12.335 29.226C12.5497 29.226 12.7643 29.2643 12.979 29.341C13.1937 29.4177 13.393 29.548 13.577 29.732C13.577 29.4713 13.5693 29.1877 13.554 28.881C13.554 28.559 13.5463 28.237 13.531 27.915C13.5157 27.593 13.4927 27.294 13.462 27.018C13.4467 26.7267 13.4237 26.4813 13.393 26.282C13.3623 26.052 13.2703 25.914 13.117 25.868C12.979 25.8067 12.8027 25.8143 12.588 25.891C12.22 26.0137 11.7907 26.2513 11.3 26.604C10.8093 26.9567 10.3417 27.3323 9.89701 27.731C9.75901 27.869 9.59801 27.9303 9.41401 27.915C9.24534 27.8997 9.09968 27.8307 8.97701 27.708C8.85434 27.5853 8.78534 27.4473 8.77001 27.294C8.75467 27.1253 8.81601 26.949 8.95401 26.765C9.21467 26.489 9.50601 26.2053 9.82801 25.914C10.15 25.6227 10.4873 25.362 10.84 25.132C11.1927 24.8867 11.553 24.6873 11.921 24.534C12.289 24.3807 12.657 24.2963 13.025 24.281C13.5617 24.2657 13.9757 24.3883 14.267 24.649C14.5583 24.8943 14.7347 25.2163 14.796 25.615ZM12.128 30.56C11.9287 30.606 11.714 30.7057 11.484 30.859C11.2693 30.997 11.07 31.1733 10.886 31.388C10.7173 31.5873 10.587 31.8173 10.495 32.078C10.4183 32.3233 10.4183 32.5687 10.495 32.814C10.5257 32.906 10.587 32.975 10.679 33.021C10.7863 33.067 10.9013 33.0747 11.024 33.044C11.392 32.9673 11.806 32.8217 12.266 32.607C12.7413 32.377 13.117 32.1317 13.393 31.871C13.393 31.779 13.347 31.664 13.255 31.526C13.163 31.3727 13.0557 31.227 12.933 31.089C12.8103 30.9357 12.6723 30.8053 12.519 30.698C12.381 30.5907 12.2507 30.5447 12.128 30.56ZM23.9586 26.19C23.6826 26.3433 23.3913 26.5043 23.0846 26.673C22.7933 26.8417 22.4943 27.041 22.1876 27.271C21.8963 27.4857 21.6126 27.7463 21.3366 28.053C21.076 28.3443 20.8383 28.697 20.6236 29.111C20.317 29.6937 20.11 30.2917 20.0026 30.905C19.8953 31.503 19.8263 32.0933 19.7956 32.676C19.7956 32.952 19.7266 33.2357 19.5886 33.527C19.466 33.803 19.2896 33.941 19.0596 33.941C18.7683 33.941 18.5306 33.7953 18.3466 33.504C18.178 33.1973 18.063 32.906 18.0016 32.63C17.741 31.5413 17.5263 30.468 17.3576 29.41C17.189 28.3367 17.0433 27.271 16.9206 26.213C16.9206 25.9983 16.982 25.8603 17.1046 25.799C17.2426 25.7377 17.396 25.7147 17.5646 25.73C17.7486 25.7453 17.925 25.7913 18.0936 25.868C18.2623 25.9447 18.362 26.0673 18.3926 26.236C18.454 26.8033 18.5306 27.4013 18.6226 28.03C18.7146 28.6433 18.8066 29.1723 18.8986 29.617C18.96 29.0957 19.1286 28.5897 19.4046 28.099C19.6806 27.6083 20.018 27.1637 20.4166 26.765C20.8306 26.3663 21.2906 26.029 21.7966 25.753C22.318 25.477 22.847 25.293 23.3836 25.201C23.6136 25.1703 23.8053 25.1703 23.9586 25.201C24.112 25.2317 24.2193 25.2853 24.2806 25.362C24.342 25.4387 24.3496 25.5613 24.3036 25.73C24.273 25.8987 24.158 26.052 23.9586 26.19ZM29.0043 22.464C28.9583 22.188 28.9736 21.935 29.0503 21.705C29.1423 21.475 29.3186 21.3447 29.5793 21.314C29.8093 21.2833 30.0086 21.3447 30.1773 21.498C30.3613 21.6513 30.4763 21.8507 30.5223 22.096C30.8289 23.8593 31.1126 25.615 31.3733 27.363C31.6493 29.0957 31.8946 30.7977 32.1093 32.469C32.1706 32.9137 32.1399 33.2203 32.0173 33.389C31.8946 33.5423 31.7489 33.6573 31.5803 33.734C31.3963 33.8107 31.2199 33.8107 31.0513 33.734C30.8979 33.6573 30.7983 33.5193 30.7523 33.32L30.7293 33.182L30.6373 33.205C30.1313 33.389 29.6023 33.4963 29.0503 33.527C28.4983 33.5423 27.9693 33.4733 27.4633 33.32C26.9573 33.1667 26.5049 32.9213 26.1063 32.584C25.7229 32.2313 25.4469 31.7867 25.2783 31.25C24.9103 30.0693 25.1403 28.996 25.9683 28.03C26.3209 27.6313 26.7579 27.271 27.2793 26.949C27.8006 26.627 28.4293 26.374 29.1653 26.19L29.5793 26.098L29.0043 22.464ZM26.6813 30.675C26.7733 31.043 26.9419 31.3267 27.1873 31.526C27.4326 31.7253 27.7239 31.8633 28.0613 31.94C28.3986 32.0013 28.7589 32.009 29.1423 31.963C29.5256 31.917 29.9013 31.8327 30.2693 31.71L30.4763 31.641L29.8323 27.593L29.3723 27.708C29.0503 27.8 28.7053 27.9457 28.3373 28.145C27.9846 28.329 27.6703 28.5513 27.3943 28.812C27.1183 29.0727 26.9036 29.364 26.7503 29.686C26.6123 30.008 26.5893 30.3377 26.6813 30.675ZM37.409 27.248C37.3783 27.0793 37.3476 26.9183 37.317 26.765C37.2863 26.6117 37.2096 26.512 37.087 26.466C36.8263 26.3893 36.5503 26.3817 36.259 26.443C35.9676 26.5043 35.6993 26.604 35.454 26.742C35.2086 26.8647 35.0016 27.0103 34.833 27.179C34.6643 27.3323 34.5723 27.4703 34.557 27.593C34.511 27.823 34.5723 28.0453 34.741 28.26C34.9096 28.4747 35.155 28.6893 35.477 28.904C36.0136 29.226 36.5733 29.5557 37.156 29.893C37.7386 30.2303 38.2293 30.5753 38.628 30.928C39.0266 31.2807 39.295 31.6717 39.433 32.101C39.5863 32.515 39.5556 32.9903 39.341 33.527C39.1723 33.941 38.858 34.2783 38.398 34.539C37.938 34.7997 37.432 35.0067 36.88 35.16C36.328 35.298 35.776 35.3977 35.224 35.459C34.672 35.505 34.2043 35.528 33.821 35.528C33.729 35.528 33.614 35.4973 33.476 35.436C33.3533 35.3593 33.2306 35.275 33.108 35.183C33.0006 35.091 32.901 34.999 32.809 34.907C32.7323 34.7997 32.694 34.7077 32.694 34.631C32.694 34.355 32.8166 34.1633 33.062 34.056C33.3073 33.9487 33.5603 33.895 33.821 33.895C34.189 33.895 34.58 33.8797 34.994 33.849C35.4233 33.803 35.8296 33.7417 36.213 33.665C36.5963 33.573 36.9413 33.458 37.248 33.32C37.5546 33.182 37.7693 33.0057 37.892 32.791C37.9993 32.607 37.9303 32.3923 37.685 32.147C37.455 31.8863 37.1406 31.618 36.742 31.342C36.3586 31.066 35.937 30.7977 35.477 30.537C35.0323 30.2763 34.649 30.0387 34.327 29.824C34.005 29.6093 33.729 29.3563 33.499 29.065C33.269 28.7583 33.1233 28.3827 33.062 27.938C33.0466 27.5393 33.131 27.156 33.315 26.788C33.499 26.42 33.7366 26.098 34.028 25.822C34.3346 25.5307 34.6796 25.3007 35.063 25.132C35.4463 24.9633 35.8296 24.879 36.213 24.879C36.8723 24.9097 37.4166 25.0937 37.846 25.431C38.2753 25.753 38.5283 26.236 38.605 26.88C38.605 27.0947 38.5666 27.271 38.49 27.409C38.4286 27.547 38.3136 27.6313 38.145 27.662C37.9303 27.6927 37.754 27.6697 37.616 27.593C37.4933 27.501 37.4243 27.386 37.409 27.248ZM47.6932 29.939C47.4785 29.9697 47.2255 29.9467 46.9342 29.87C46.6582 29.7933 46.4665 29.6017 46.3592 29.295C46.3132 29.1417 46.3055 28.996 46.3362 28.858C46.3669 28.7047 46.5279 28.5973 46.8192 28.536C47.0952 28.4747 47.3865 28.421 47.6932 28.375C48.0152 28.3137 48.3372 28.26 48.6592 28.214L47.8082 25.638C47.5475 24.6567 47.5169 23.8133 47.7162 23.108C47.9155 22.4027 48.4829 21.8967 49.4182 21.59C49.8015 21.4673 50.1772 21.4213 50.5452 21.452C50.9285 21.4827 51.2889 21.5823 51.6262 21.751C51.9635 21.9197 52.2702 22.142 52.5462 22.418C52.8222 22.694 53.0445 23.016 53.2132 23.384C53.2745 23.5527 53.3052 23.706 53.3052 23.844C53.3205 23.9667 53.2745 24.0817 53.1672 24.189C53.0139 24.3423 52.8452 24.4113 52.6612 24.396C52.4772 24.3653 52.3545 24.3117 52.2932 24.235C52.1552 24.0663 52.0019 23.8977 51.8332 23.729C51.6799 23.545 51.5112 23.3917 51.3272 23.269C51.1585 23.131 50.9745 23.0313 50.7752 22.97C50.5759 22.8933 50.3612 22.8703 50.1312 22.901C50.0239 22.9163 49.8935 22.97 49.7402 23.062C49.6022 23.154 49.4795 23.2997 49.3722 23.499C49.2649 23.683 49.1959 23.9283 49.1652 24.235C49.1499 24.5417 49.2035 24.925 49.3262 25.385C49.4335 25.7683 49.5562 26.1823 49.6942 26.627C49.8322 27.0717 49.9855 27.5393 50.1542 28.03C50.8902 27.9533 51.5649 27.9303 52.1782 27.961C52.5155 27.9917 52.8299 28.053 53.1212 28.145C53.4125 28.237 53.6502 28.375 53.8342 28.559C53.8802 28.7123 53.8725 28.8427 53.8112 28.95C53.7499 29.042 53.6579 29.1263 53.5352 29.203C53.4279 29.2643 53.2975 29.3103 53.1442 29.341C53.0062 29.3717 52.8682 29.3947 52.7302 29.41C52.4235 29.4407 52.1015 29.479 51.7642 29.525C51.4269 29.5557 51.0742 29.5863 50.7062 29.617C50.9515 30.307 51.1739 30.9663 51.3732 31.595C51.5879 32.2083 51.7565 32.722 51.8792 33.136C51.9405 33.366 51.9482 33.6113 51.9022 33.872C51.8562 34.1327 51.7949 34.3857 51.7182 34.631C51.5955 34.9837 51.4422 35.2673 51.2582 35.482C51.0742 35.6967 50.8749 35.7657 50.6602 35.689C50.4915 35.6123 50.3842 35.5127 50.3382 35.39C50.2922 35.2673 50.2845 35.0987 50.3152 34.884C50.3459 34.6387 50.3612 34.3933 50.3612 34.148C50.3612 33.9027 50.3459 33.6803 50.3152 33.481C50.2999 33.2663 50.2692 33.0823 50.2232 32.929C50.1925 32.7603 50.1695 32.6453 50.1542 32.584L49.1882 29.778C48.9429 29.8087 48.6975 29.8393 48.4522 29.87C48.2069 29.8853 47.9539 29.9083 47.6932 29.939ZM60.4834 26.098C60.9434 26.2667 61.3267 26.5197 61.6334 26.857C61.9554 27.1943 62.2007 27.5777 62.3694 28.007C62.538 28.421 62.63 28.8503 62.6454 29.295C62.676 29.7397 62.63 30.1537 62.5074 30.537C62.3387 30.9663 62.124 31.388 61.8634 31.802C61.6027 32.216 61.3037 32.584 60.9664 32.906C60.629 33.228 60.2457 33.4887 59.8164 33.688C59.387 33.8873 58.9117 33.987 58.3904 33.987C57.7617 33.987 57.2327 33.8413 56.8034 33.55C56.374 33.2587 56.0367 32.883 55.7914 32.423C55.546 31.963 55.385 31.4417 55.3084 30.859C55.247 30.2763 55.2624 29.6937 55.3544 29.111C55.4157 28.6817 55.5154 28.2677 55.6534 27.869C55.8067 27.455 55.9984 27.0947 56.2284 26.788C56.4584 26.466 56.719 26.2053 57.0104 26.006C57.317 25.8067 57.662 25.707 58.0454 25.707C58.26 25.707 58.5284 25.753 58.8504 25.845C59.1724 25.9217 59.4714 26.0367 59.7474 26.19C59.9467 26.006 60.192 25.9753 60.4834 26.098ZM59.6094 27.777C59.4407 27.6697 59.2414 27.5317 59.0114 27.363C58.7967 27.179 58.605 27.087 58.4364 27.087C58.2524 27.087 58.0684 27.1713 57.8844 27.34C57.7157 27.5087 57.5624 27.708 57.4244 27.938C57.3017 28.1527 57.1944 28.375 57.1024 28.605C57.0104 28.835 56.949 29.019 56.9184 29.157C56.8724 29.387 56.8417 29.663 56.8264 29.985C56.811 30.307 56.834 30.629 56.8954 30.951C56.9567 31.2577 57.0717 31.5413 57.2404 31.802C57.4244 32.0473 57.6927 32.2237 58.0454 32.331C58.26 32.3923 58.513 32.3923 58.8044 32.331C59.0957 32.2543 59.3794 32.124 59.6554 31.94C59.9467 31.756 60.215 31.5107 60.4604 31.204C60.721 30.8973 60.9204 30.5447 61.0584 30.146C61.2117 29.7013 61.2117 29.2413 61.0584 28.766C60.9204 28.2753 60.629 27.9227 60.1844 27.708C60.077 27.7847 59.9697 27.823 59.8624 27.823C59.755 27.823 59.6707 27.8077 59.6094 27.777ZM71.1392 26.19C70.8632 26.3433 70.5718 26.5043 70.2652 26.673C69.9738 26.8417 69.6748 27.041 69.3682 27.271C69.0768 27.4857 68.7932 27.7463 68.5172 28.053C68.2565 28.3443 68.0188 28.697 67.8042 29.111C67.4975 29.6937 67.2905 30.2917 67.1832 30.905C67.0758 31.503 67.0068 32.0933 66.9762 32.676C66.9762 32.952 66.9072 33.2357 66.7692 33.527C66.6465 33.803 66.4702 33.941 66.2402 33.941C65.9488 33.941 65.7112 33.7953 65.5272 33.504C65.3585 33.1973 65.2435 32.906 65.1822 32.63C64.9215 31.5413 64.7068 30.468 64.5382 29.41C64.3695 28.3367 64.2238 27.271 64.1012 26.213C64.1012 25.9983 64.1625 25.8603 64.2852 25.799C64.4232 25.7377 64.5765 25.7147 64.7452 25.73C64.9292 25.7453 65.1055 25.7913 65.2742 25.868C65.4428 25.9447 65.5425 26.0673 65.5732 26.236C65.6345 26.8033 65.7112 27.4013 65.8032 28.03C65.8952 28.6433 65.9872 29.1723 66.0792 29.617C66.1405 29.0957 66.3092 28.5897 66.5852 28.099C66.8612 27.6083 67.1985 27.1637 67.5972 26.765C68.0112 26.3663 68.4712 26.029 68.9772 25.753C69.4985 25.477 70.0275 25.293 70.5642 25.201C70.7942 25.1703 70.9858 25.1703 71.1392 25.201C71.2925 25.2317 71.3998 25.2853 71.4612 25.362C71.5225 25.4387 71.5302 25.5613 71.4842 25.73C71.4535 25.8987 71.3385 26.052 71.1392 26.19ZM79.3191 29.939C79.1044 29.9697 78.8514 29.9467 78.5601 29.87C78.2841 29.7933 78.0924 29.6017 77.9851 29.295C77.9391 29.1417 77.9314 28.996 77.9621 28.858C77.9928 28.7047 78.1538 28.5973 78.4451 28.536C78.7211 28.4747 79.0124 28.421 79.3191 28.375C79.6411 28.3137 79.9631 28.26 80.2851 28.214L79.4341 25.638C79.1734 24.6567 79.1428 23.8133 79.3421 23.108C79.5414 22.4027 80.1088 21.8967 81.0441 21.59C81.4274 21.4673 81.8031 21.4213 82.1711 21.452C82.5544 21.4827 82.9148 21.5823 83.2521 21.751C83.5894 21.9197 83.8961 22.142 84.1721 22.418C84.4481 22.694 84.6704 23.016 84.8391 23.384C84.9004 23.5527 84.9311 23.706 84.9311 23.844C84.9464 23.9667 84.9004 24.0817 84.7931 24.189C84.6398 24.3423 84.4711 24.4113 84.2871 24.396C84.1031 24.3653 83.9804 24.3117 83.9191 24.235C83.7811 24.0663 83.6278 23.8977 83.4591 23.729C83.3058 23.545 83.1371 23.3917 82.9531 23.269C82.7844 23.131 82.6004 23.0313 82.4011 22.97C82.2018 22.8933 81.9871 22.8703 81.7571 22.901C81.6498 22.9163 81.5194 22.97 81.3661 23.062C81.2281 23.154 81.1054 23.2997 80.9981 23.499C80.8908 23.683 80.8218 23.9283 80.7911 24.235C80.7758 24.5417 80.8294 24.925 80.9521 25.385C81.0594 25.7683 81.1821 26.1823 81.3201 26.627C81.4581 27.0717 81.6114 27.5393 81.7801 28.03C82.5161 27.9533 83.1908 27.9303 83.8041 27.961C84.1414 27.9917 84.4558 28.053 84.7471 28.145C85.0384 28.237 85.2761 28.375 85.4601 28.559C85.5061 28.7123 85.4984 28.8427 85.4371 28.95C85.3758 29.042 85.2838 29.1263 85.1611 29.203C85.0538 29.2643 84.9234 29.3103 84.7701 29.341C84.6321 29.3717 84.4941 29.3947 84.3561 29.41C84.0494 29.4407 83.7274 29.479 83.3901 29.525C83.0528 29.5557 82.7001 29.5863 82.3321 29.617C82.5774 30.307 82.7998 30.9663 82.9991 31.595C83.2138 32.2083 83.3824 32.722 83.5051 33.136C83.5664 33.366 83.5741 33.6113 83.5281 33.872C83.4821 34.1327 83.4208 34.3857 83.3441 34.631C83.2214 34.9837 83.0681 35.2673 82.8841 35.482C82.7001 35.6967 82.5008 35.7657 82.2861 35.689C82.1174 35.6123 82.0101 35.5127 81.9641 35.39C81.9181 35.2673 81.9104 35.0987 81.9411 34.884C81.9718 34.6387 81.9871 34.3933 81.9871 34.148C81.9871 33.9027 81.9718 33.6803 81.9411 33.481C81.9258 33.2663 81.8951 33.0823 81.8491 32.929C81.8184 32.7603 81.7954 32.6453 81.7801 32.584L80.8141 29.778C80.5688 29.8087 80.3234 29.8393 80.0781 29.87C79.8328 29.8853 79.5798 29.9083 79.3191 29.939ZM93.6963 26.19C93.4203 26.3433 93.1289 26.5043 92.8223 26.673C92.5309 26.8417 92.2319 27.041 91.9253 27.271C91.6339 27.4857 91.3503 27.7463 91.0743 28.053C90.8136 28.3443 90.5759 28.697 90.3613 29.111C90.0546 29.6937 89.8476 30.2917 89.7403 30.905C89.6329 31.503 89.5639 32.0933 89.5333 32.676C89.5333 32.952 89.4643 33.2357 89.3263 33.527C89.2036 33.803 89.0273 33.941 88.7973 33.941C88.5059 33.941 88.2683 33.7953 88.0843 33.504C87.9156 33.1973 87.8006 32.906 87.7393 32.63C87.4786 31.5413 87.2639 30.468 87.0953 29.41C86.9266 28.3367 86.7809 27.271 86.6583 26.213C86.6583 25.9983 86.7196 25.8603 86.8423 25.799C86.9803 25.7377 87.1336 25.7147 87.3023 25.73C87.4863 25.7453 87.6626 25.7913 87.8313 25.868C87.9999 25.9447 88.0996 26.0673 88.1303 26.236C88.1916 26.8033 88.2683 27.4013 88.3603 28.03C88.4523 28.6433 88.5443 29.1723 88.6363 29.617C88.6976 29.0957 88.8663 28.5897 89.1423 28.099C89.4183 27.6083 89.7556 27.1637 90.1543 26.765C90.5683 26.3663 91.0283 26.029 91.5343 25.753C92.0556 25.477 92.5846 25.293 93.1213 25.201C93.3513 25.1703 93.5429 25.1703 93.6963 25.201C93.8496 25.2317 93.9569 25.2853 94.0183 25.362C94.0796 25.4387 94.0873 25.5613 94.0413 25.73C94.0106 25.8987 93.8956 26.052 93.6963 26.19ZM100.421 28.72C99.8229 29.0727 99.1789 29.3487 98.4889 29.548C97.7989 29.732 97.0552 29.824 96.2579 29.824C96.2885 30.3607 96.4419 30.79 96.7179 31.112C96.9939 31.4187 97.3389 31.6027 97.7529 31.664C97.9982 31.6947 98.2435 31.687 98.4889 31.641C98.7495 31.595 98.9872 31.526 99.2019 31.434C99.4319 31.3267 99.6389 31.2117 99.8229 31.089C100.007 30.9663 100.168 30.8437 100.306 30.721C100.444 30.5983 100.59 30.5217 100.743 30.491C100.896 30.445 101.011 30.4373 101.088 30.468C101.303 30.5447 101.379 30.7747 101.318 31.158C101.073 31.6487 100.72 32.0703 100.26 32.423C99.7999 32.7603 99.2862 32.975 98.7189 33.067C98.2282 33.159 97.7222 33.136 97.2009 32.998C96.6795 32.86 96.2119 32.5917 95.7979 32.193C95.4452 31.8403 95.1769 31.4263 94.9929 30.951C94.8089 30.4757 94.6939 29.985 94.6479 29.479C94.6019 29.0037 94.6402 28.5513 94.7629 28.122C94.9009 27.6927 95.1079 27.317 95.3839 26.995C95.6599 26.6577 96.0049 26.3817 96.4189 26.167C96.8329 25.9523 97.3159 25.8297 97.8679 25.799C98.5272 25.753 99.1252 25.8757 99.6619 26.167C100.199 26.4583 100.574 26.8647 100.789 27.386C100.912 27.6773 100.942 27.9303 100.881 28.145C100.835 28.3597 100.682 28.5513 100.421 28.72ZM97.7759 27.156C97.6225 27.1867 97.4539 27.2403 97.2699 27.317C97.1012 27.3937 96.9402 27.4933 96.7869 27.616C96.6489 27.7233 96.5185 27.8537 96.3959 28.007C96.2885 28.145 96.2272 28.306 96.2119 28.49C96.4725 28.49 96.7562 28.467 97.0629 28.421C97.3849 28.375 97.6915 28.3213 97.9829 28.26C98.2895 28.1833 98.5655 28.099 98.8109 28.007C99.0715 27.915 99.2862 27.8153 99.4549 27.708C99.3322 27.4167 99.1022 27.2403 98.7649 27.179C98.4429 27.1023 98.1132 27.0947 97.7759 27.156ZM108.254 28.72C107.656 29.0727 107.012 29.3487 106.322 29.548C105.632 29.732 104.889 29.824 104.091 29.824C104.122 30.3607 104.275 30.79 104.551 31.112C104.827 31.4187 105.172 31.6027 105.586 31.664C105.832 31.6947 106.077 31.687 106.322 31.641C106.583 31.595 106.821 31.526 107.035 31.434C107.265 31.3267 107.472 31.2117 107.656 31.089C107.84 30.9663 108.001 30.8437 108.139 30.721C108.277 30.5983 108.423 30.5217 108.576 30.491C108.73 30.445 108.845 30.4373 108.921 30.468C109.136 30.5447 109.213 30.7747 109.151 31.158C108.906 31.6487 108.553 32.0703 108.093 32.423C107.633 32.7603 107.12 32.975 106.552 33.067C106.062 33.159 105.556 33.136 105.034 32.998C104.513 32.86 104.045 32.5917 103.631 32.193C103.279 31.8403 103.01 31.4263 102.826 30.951C102.642 30.4757 102.527 29.985 102.481 29.479C102.435 29.0037 102.474 28.5513 102.596 28.122C102.734 27.6927 102.941 27.317 103.217 26.995C103.493 26.6577 103.838 26.3817 104.252 26.167C104.666 25.9523 105.149 25.8297 105.701 25.799C106.361 25.753 106.959 25.8757 107.495 26.167C108.032 26.4583 108.408 26.8647 108.622 27.386C108.745 27.6773 108.776 27.9303 108.714 28.145C108.668 28.3597 108.515 28.5513 108.254 28.72ZM105.609 27.156C105.456 27.1867 105.287 27.2403 105.103 27.317C104.935 27.3937 104.774 27.4933 104.62 27.616C104.482 27.7233 104.352 27.8537 104.229 28.007C104.122 28.145 104.061 28.306 104.045 28.49C104.306 28.49 104.59 28.467 104.896 28.421C105.218 28.375 105.525 28.3213 105.816 28.26C106.123 28.1833 106.399 28.099 106.644 28.007C106.905 27.915 107.12 27.8153 107.288 27.708C107.166 27.4167 106.936 27.2403 106.598 27.179C106.276 27.1023 105.947 27.0947 105.609 27.156Z" fill="#B37500"/>
</svg>
