<svg width="10" height="10" viewBox="0 0 10 10" fill="none" xmlns="http://www.w3.org/2000/svg">
<path d="M5.24159 3.51865C5.1952 3.50319 5.08697 3.47742 4.98905 3.47227C4.91173 3.46711 4.76742 3.5135 4.69526 3.56504C4.52518 3.68874 4.27264 3.97737 4.02524 4.48246C3.77269 4.96179 3.53045 5.58543 3.23667 6.24514C3.1439 6.4513 3.09236 6.82754 1.9327 6.68323C0.731811 6.53892 0.0566296 6.15753 0.175173 5.69882C0.319486 5.15249 0.530793 4.60616 0.762725 4.05468C1.00496 3.47742 1.24205 2.90017 1.48429 2.32807C1.67499 1.87451 1.96361 1.4158 2.38624 1.02925C2.80372 0.647849 3.3346 0.323149 3.89639 0.168528C4.46849 -0.0118634 5.09212 -0.0376365 5.65906 0.0448282C6.23116 0.127293 6.76203 0.312839 7.25682 0.565387C8.13816 1.00348 8.90096 1.85905 9.28235 2.79709C9.6586 3.74028 9.72046 4.71955 9.59676 5.65758C9.46275 6.53892 9.17413 7.42542 8.59687 8.2346C8.03508 9.04379 7.08159 9.70865 6.04047 9.91997C5.14367 10.1055 4.25717 9.9509 3.52014 9.6365C2.7728 9.31695 2.14916 8.84277 1.61314 8.3016C1.36574 8.05421 0.901888 7.86866 0.669956 7.50788C0.572029 7.36357 0.463791 7.15225 0.36071 6.94609C0.273092 6.72447 0.200937 6.49253 0.185475 6.31214C0.180321 6.15236 0.190632 5.98744 0.108167 5.85343C-0.0670699 5.54419 -0.0258363 5.2968 0.206096 5.18341C0.438027 5.06487 0.881272 5.07002 1.55645 5.08548C1.85023 5.08548 2.23163 5.02363 2.44295 5.07517C2.45326 5.07517 2.46872 5.08032 2.47903 5.08032C2.8862 5.13187 3.01504 5.1628 3.04596 5.24011C3.06658 5.31742 3.04082 5.42565 3.0769 5.50811C3.3346 5.88951 3.75207 6.23484 4.22624 6.41523C4.69526 6.59562 5.17974 6.60593 5.49929 6.44615C5.7003 6.35338 5.891 6.22453 6.04562 6.01836C6.20024 5.8122 6.30847 5.52873 6.30332 5.2298C6.29817 5.06487 6.15385 4.89994 6.25693 4.76078C6.24147 4.68347 6.21055 4.60616 6.17447 4.53916C6.1487 4.467 6.11778 4.40515 6.10232 4.3433C6.05593 4.10106 5.93739 3.93098 5.81369 3.82275C5.67454 3.68874 5.47352 3.57534 5.30343 3.47742C5.29313 3.47742 5.2622 3.5238 5.24159 3.51865Z" fill="#690811"/>
</svg>
