<svg width="145" height="30" viewBox="0 0 145 30" fill="none" xmlns="http://www.w3.org/2000/svg">
<path d="M40.32 23.456C38.816 23.456 37.488 23.208 36.336 22.712C35.2 22.2 34.24 21.52 33.456 20.672C32.688 19.808 32.104 18.84 31.704 17.768C31.32 16.68 31.128 15.552 31.128 14.384V13.856C31.128 12.752 31.32 11.672 31.704 10.616C32.088 9.56 32.648 8.608 33.384 7.76C34.136 6.912 35.056 6.24 36.144 5.744C37.248 5.232 38.512 4.976 39.936 4.976C41.472 4.976 42.832 5.264 44.016 5.84C45.2 6.4 46.152 7.192 46.872 8.216C47.592 9.224 48.016 10.4 48.144 11.744H44.712C44.6 10.992 44.32 10.352 43.872 9.824C43.424 9.28 42.856 8.864 42.168 8.576C41.496 8.288 40.752 8.144 39.936 8.144C39.12 8.144 38.376 8.288 37.704 8.576C37.048 8.864 36.488 9.272 36.024 9.8C35.56 10.328 35.2 10.96 34.944 11.696C34.704 12.432 34.584 13.248 34.584 14.144C34.584 15.12 34.72 15.992 34.992 16.76C35.264 17.528 35.648 18.184 36.144 18.728C36.64 19.256 37.24 19.664 37.944 19.952C38.648 20.224 39.44 20.36 40.32 20.36C41.488 20.36 42.512 20.12 43.392 19.64C44.272 19.144 44.912 18.504 45.312 17.72L44.712 20.48V15.968H47.856V19.856C47.104 20.992 46.08 21.88 44.784 22.52C43.488 23.144 42 23.456 40.32 23.456ZM39.768 16.64V14.096H49.32V16.64H39.768ZM53.4487 23V9.968H56.7847V23H53.4487ZM51.6247 12.464V9.968H56.7847V12.464H51.6247ZM54.6727 8.408C54.0167 8.408 53.5287 8.24 53.2087 7.904C52.9047 7.552 52.7527 7.12 52.7527 6.608C52.7527 6.064 52.9047 5.624 53.2087 5.288C53.5287 4.952 54.0167 4.784 54.6727 4.784C55.3287 4.784 55.8087 4.952 56.1127 5.288C56.4167 5.624 56.5687 6.064 56.5687 6.608C56.5687 7.12 56.4167 7.552 56.1127 7.904C55.8087 8.24 55.3287 8.408 54.6727 8.408ZM61.9014 23V9.656C61.9014 8.168 62.3094 7.072 63.1254 6.368C63.9574 5.648 65.1814 5.288 66.7974 5.288H68.4294V7.856H66.5574C66.0614 7.856 65.6774 7.992 65.4054 8.264C65.1494 8.52 65.0214 8.888 65.0214 9.368V23H61.9014ZM60.2694 12.632V10.184H68.6454V12.632H60.2694ZM77.5884 23.168C76.3884 23.168 75.3964 23.016 74.6124 22.712C73.8444 22.392 73.2684 21.864 72.8844 21.128C72.5004 20.376 72.3084 19.368 72.3084 18.104L72.3324 6.296H75.4524L75.4284 18.32C75.4284 18.96 75.5964 19.456 75.9324 19.808C76.2844 20.144 76.7804 20.312 77.4204 20.312H79.4604V23.168H77.5884ZM70.2444 12.416V9.968H79.4604V12.416H70.2444ZM91.3804 23.456C89.7964 23.456 88.4364 23.176 87.3004 22.616C86.1644 22.056 85.2364 21.328 84.5164 20.432C83.8124 19.536 83.2924 18.56 82.9564 17.504C82.6204 16.448 82.4524 15.432 82.4524 14.456V13.928C82.4524 12.84 82.6204 11.768 82.9564 10.712C83.3084 9.656 83.8444 8.696 84.5644 7.832C85.2844 6.968 86.1964 6.28 87.3004 5.768C88.4204 5.24 89.7404 4.976 91.2604 4.976C92.8444 4.976 94.2204 5.264 95.3884 5.84C96.5724 6.4 97.5164 7.2 98.2204 8.24C98.9244 9.264 99.3484 10.464 99.4924 11.84H96.0604C95.9324 11.04 95.6444 10.368 95.1964 9.824C94.7644 9.264 94.2124 8.848 93.5404 8.576C92.8684 8.288 92.1084 8.144 91.2604 8.144C90.3964 8.144 89.6284 8.296 88.9564 8.6C88.2844 8.888 87.7244 9.304 87.2764 9.848C86.8284 10.392 86.4844 11.032 86.2444 11.768C86.0204 12.504 85.9084 13.32 85.9084 14.216C85.9084 15.08 86.0204 15.88 86.2444 16.616C86.4844 17.352 86.8364 18 87.3004 18.56C87.7644 19.104 88.3324 19.528 89.0044 19.832C89.6924 20.136 90.4844 20.288 91.3804 20.288C92.6924 20.288 93.7964 19.968 94.6924 19.328C95.6044 18.672 96.1564 17.76 96.3484 16.592H99.7804C99.6204 17.84 99.1964 18.984 98.5084 20.024C97.8204 21.064 96.8764 21.896 95.6764 22.52C94.4764 23.144 93.0444 23.456 91.3804 23.456ZM111.248 23V19.136H110.696V14.84C110.696 14.088 110.512 13.528 110.144 13.16C109.776 12.792 109.208 12.608 108.44 12.608C108.04 12.608 107.56 12.616 107 12.632C106.44 12.648 105.872 12.672 105.296 12.704C104.736 12.72 104.232 12.744 103.784 12.776V9.944C104.152 9.912 104.568 9.88 105.032 9.848C105.496 9.816 105.968 9.8 106.448 9.8C106.944 9.784 107.408 9.776 107.84 9.776C109.184 9.776 110.296 9.952 111.176 10.304C112.072 10.656 112.744 11.208 113.192 11.96C113.656 12.712 113.888 13.696 113.888 14.912V23H111.248ZM107.048 23.336C106.104 23.336 105.272 23.168 104.552 22.832C103.848 22.496 103.296 22.016 102.896 21.392C102.512 20.768 102.32 20.016 102.32 19.136C102.32 18.176 102.552 17.392 103.016 16.784C103.496 16.176 104.16 15.72 105.008 15.416C105.872 15.112 106.88 14.96 108.032 14.96H111.056V16.952H107.984C107.216 16.952 106.624 17.144 106.208 17.528C105.808 17.896 105.608 18.376 105.608 18.968C105.608 19.56 105.808 20.04 106.208 20.408C106.624 20.776 107.216 20.96 107.984 20.96C108.448 20.96 108.872 20.88 109.256 20.72C109.656 20.544 109.984 20.256 110.24 19.856C110.512 19.44 110.664 18.88 110.696 18.176L111.512 19.112C111.432 20.024 111.208 20.792 110.84 21.416C110.488 22.04 109.992 22.52 109.352 22.856C108.728 23.176 107.96 23.336 107.048 23.336ZM118.422 23V9.968H121.062V15.488H120.99C120.99 13.616 121.39 12.2 122.19 11.24C122.99 10.28 124.166 9.8 125.718 9.8H126.198V12.704H125.286C124.166 12.704 123.294 13.008 122.67 13.616C122.062 14.208 121.758 15.072 121.758 16.208V23H118.422ZM134.696 23.432C133.784 23.432 132.944 23.264 132.176 22.928C131.408 22.592 130.744 22.12 130.184 21.512C129.624 20.904 129.192 20.2 128.888 19.4C128.584 18.584 128.432 17.704 128.432 16.76V16.256C128.432 15.328 128.576 14.456 128.864 13.64C129.168 12.824 129.584 12.112 130.112 11.504C130.656 10.896 131.304 10.424 132.056 10.088C132.824 9.736 133.672 9.56 134.6 9.56C135.624 9.56 136.52 9.784 137.288 10.232C138.072 10.664 138.696 11.32 139.16 12.2C139.624 13.08 139.88 14.184 139.928 15.512L138.944 14.36V5.48H142.28V23H139.64V17.456H140.216C140.168 18.784 139.896 19.896 139.4 20.792C138.904 21.672 138.248 22.336 137.432 22.784C136.632 23.216 135.72 23.432 134.696 23.432ZM135.44 20.624C136.096 20.624 136.696 20.48 137.24 20.192C137.784 19.888 138.216 19.456 138.536 18.896C138.872 18.32 139.04 17.648 139.04 16.88V15.92C139.04 15.152 138.872 14.512 138.536 14C138.2 13.472 137.76 13.072 137.216 12.8C136.672 12.512 136.08 12.368 135.44 12.368C134.72 12.368 134.08 12.544 133.52 12.896C132.976 13.232 132.544 13.712 132.224 14.336C131.92 14.96 131.768 15.688 131.768 16.52C131.768 17.352 131.928 18.08 132.248 18.704C132.568 19.312 133 19.784 133.544 20.12C134.104 20.456 134.736 20.624 135.44 20.624Z" fill="#0C7E7E"/>
<g clip-path="url(#clip0_0_268)">
<path d="M2 16H11V25H7C5.67392 25 4.40215 24.4732 3.46447 23.5355C2.52678 22.5979 2 21.3261 2 20V16ZM24 12C24 12.5304 23.7893 13.0391 23.4142 13.4142C23.0391 13.7893 22.5304 14 22 14H13V9.957C12.664 9.983 12.329 10 12 10C11.671 10 11.336 9.983 11 9.957V14H2C1.46957 14 0.960859 13.7893 0.585786 13.4142C0.210714 13.0391 0 12.5304 0 12C0 10.9391 0.421427 9.92172 1.17157 9.17157C1.92172 8.42143 2.93913 8 4 8H5.738C5.1726 7.5016 4.7238 6.88488 4.42344 6.1936C4.12307 5.50232 3.97851 4.75341 4 4C4 3.73478 4.10536 3.48043 4.29289 3.29289C4.48043 3.10536 4.73478 3 5 3C5.26522 3 5.51957 3.10536 5.70711 3.29289C5.89464 3.48043 6 3.73478 6 4C6 6.622 8.371 7.53 10.174 7.841C9.50852 6.66105 9.10791 5.35037 9 4C9 3.20435 9.31607 2.44129 9.87868 1.87868C10.4413 1.31607 11.2044 1 12 1C12.7956 1 13.5587 1.31607 14.1213 1.87868C14.6839 2.44129 15 3.20435 15 4C14.8921 5.35037 14.4915 6.66105 13.826 7.841C15.629 7.53 18 6.622 18 4C18 3.73478 18.1054 3.48043 18.2929 3.29289C18.4804 3.10536 18.7348 3 19 3C19.2652 3 19.5196 3.10536 19.7071 3.29289C19.8946 3.48043 20 3.73478 20 4C20.0215 4.75341 19.8769 5.50232 19.5766 6.1936C19.2762 6.88488 18.8274 7.5016 18.262 8H20C21.0609 8 22.0783 8.42143 22.8284 9.17157C23.5786 9.92172 24 10.9391 24 12ZM11 4C11.1207 5.06283 11.4613 6.08891 12 7.013C12.5387 6.08891 12.8793 5.06283 13 4C13 3.73478 12.8946 3.48043 12.7071 3.29289C12.5196 3.10536 12.2652 3 12 3C11.7348 3 11.4804 3.10536 11.2929 3.29289C11.1054 3.48043 11 3.73478 11 4V4ZM13 25H17C17.6566 25 18.3068 24.8707 18.9134 24.6194C19.52 24.3681 20.0712 23.9998 20.5355 23.5355C20.9998 23.0712 21.3681 22.52 21.6194 21.9134C21.8707 21.3068 22 20.6566 22 20V16H13V25Z" fill="url(#paint0_linear_0_268)"/>
</g>
<defs>
<linearGradient id="paint0_linear_0_268" x1="12" y1="1" x2="12" y2="25" gradientUnits="userSpaceOnUse">
<stop stop-color="#34AAB9"/>
<stop offset="1" stop-color="#286593"/>
</linearGradient>
<clipPath id="clip0_0_268">
<rect width="24" height="24" fill="white" transform="translate(0 1)"/>
</clipPath>
</defs>
</svg>
