<svg width="24" height="13" viewBox="0 0 24 13" fill="none" xmlns="http://www.w3.org/2000/svg">
<path d="M6.57178 3.69574L7.96097 11.5742L6.86845 11.7668L1.84499 6.69492L1.7719 6.70781L2.79073 12.4859L1.60204 12.6955L0.21285 4.81699L1.31306 4.623L6.34172 9.70194L6.41481 9.68905L5.39463 3.90331L6.57178 3.69574ZM12.062 10.974C11.4798 11.0767 10.9565 11.0407 10.4921 10.8661C10.0297 10.6885 9.64439 10.3928 9.33609 9.97915C9.02992 9.56245 8.82279 9.04763 8.71471 8.43469C8.60799 7.82944 8.62677 7.2761 8.77106 6.77468C8.91791 6.27281 9.17239 5.85641 9.53449 5.52548C9.89915 5.1941 10.3559 4.98003 10.9047 4.88325C11.2381 4.82447 11.571 4.82263 11.9033 4.87773C12.2356 4.93284 12.547 5.05644 12.8374 5.24852C13.1277 5.4406 13.378 5.71247 13.588 6.06414C13.7977 6.41325 13.9498 6.85581 14.0443 7.39181L14.1162 7.79958L9.4191 8.6278L9.26716 7.7661L12.8371 7.13662C12.7837 6.834 12.6749 6.57685 12.5107 6.36518C12.346 6.15094 12.1401 5.99553 11.893 5.89895C11.6485 5.80191 11.3775 5.77963 11.08 5.83208C10.7568 5.88906 10.4887 6.01831 10.2757 6.21982C10.0648 6.41832 9.91629 6.65604 9.83027 6.933C9.74635 7.20694 9.7304 7.49138 9.7824 7.78631L9.90111 8.45952C9.97075 8.85446 10.0992 9.17822 10.2866 9.43078C10.4765 9.68288 10.71 9.85987 10.9871 9.96173C11.2637 10.061 11.57 10.0811 11.906 10.0218C12.124 9.98339 12.3173 9.91757 12.486 9.82436C12.6542 9.72859 12.7926 9.60634 12.9013 9.45762C13.0099 9.30889 13.0826 9.13609 13.1192 8.93923L14.2425 8.94346C14.2118 9.27941 14.1049 9.58782 13.9217 9.86869C13.7407 10.1465 13.4926 10.382 13.1776 10.575C12.8647 10.7651 12.4928 10.8981 12.062 10.974ZM17.0144 9.97784L14.2337 4.37559L15.4224 4.16599L17.3455 8.30113L17.4032 8.29096L17.7998 3.7468L18.9885 3.5372L20.9043 7.65378L20.962 7.6436L21.3505 3.12071L22.5392 2.91112L21.8461 9.12588L20.6728 9.33277L18.7203 5.27818L18.6318 5.29378L18.1839 9.77164L17.0144 9.97784Z" fill="#000E1F"/>
</svg>
