<svg width="332" height="104" viewBox="0 0 332 104" fill="none" xmlns="http://www.w3.org/2000/svg">
<path d="M277.735 7.54746C278.31 7.76155 278.992 7.9681 279.726 8.27842C280.465 8.58273 281.281 8.92696 282.172 9.29976C283.063 9.67256 284.024 10.0744 285.055 10.5052C286.062 10.9886 287.127 11.5019 288.25 12.0449C288.812 12.3165 289.386 12.5928 289.971 12.8796C290.264 13.023 290.562 13.166 290.861 13.309C291.149 13.4697 291.443 13.6356 291.743 13.8011C292.932 14.4584 294.162 15.1466 295.432 15.849C295.75 16.0246 296.068 16.2057 296.391 16.3809C296.705 16.5794 297.018 16.7779 297.332 16.9764C297.964 17.3729 298.604 17.7804 299.248 18.1874C300.539 19.0071 301.868 19.824 303.16 20.7509C308.367 24.3824 313.583 28.7707 317.978 33.7253C322.389 38.6562 325.897 44.1817 328.099 49.4484C330.663 55.5431 331.959 62.1733 331.695 68.8222C331.56 72.1441 331.024 75.4659 330.033 78.6725C329.048 81.8788 327.584 84.9546 325.688 87.7443C323.791 90.5339 321.456 93.0378 318.784 95.0904C316.124 97.1534 313.171 98.8131 310.081 100.064C303.877 102.545 297.187 103.427 290.637 103.139C284.073 102.831 277.595 101.317 271.567 98.727C268.553 97.429 265.654 95.8459 262.939 93.9786C261.638 93.0014 260.306 92.066 259.042 91.0523L257.185 89.481L256.253 88.6928C255.941 88.432 255.661 88.1407 255.364 87.8619C250.606 83.4585 246.468 78.4689 242.819 73.202C239.165 67.9298 235.983 62.3871 233.088 56.7338C231.263 53.2045 228.941 48.3872 227.265 44.4065C225.584 40.4317 224.529 37.3064 225.158 37.1662C225.825 37.012 227.253 38.9073 229.26 42.3674C231.272 45.8271 233.825 50.8713 237.023 56.8877C240.885 64.1633 245.217 71.1968 250.405 77.5316L252.39 79.874C253.066 80.6407 253.784 81.3704 254.475 82.119C254.829 82.4898 255.167 82.8676 255.531 83.232L256.64 84.2849L257.748 85.3377C258.118 85.6906 258.482 86.0438 258.878 86.3665L261.21 88.3398C261.991 88.9916 262.834 89.5656 263.64 90.1818L264.863 91.0909L266.126 91.9238C266.542 92.2112 266.978 92.4634 267.414 92.7211C267.85 92.9731 268.271 93.2488 268.723 93.4828C275.788 97.3968 283.875 99.5151 291.945 99.7014C293.961 99.741 295.986 99.6782 297.982 99.4422C298.988 99.3548 299.976 99.1725 300.967 99.024C301.947 98.8196 302.936 98.6429 303.901 98.3718C304.88 98.1449 305.824 97.8187 306.776 97.5259C307.707 97.1724 308.651 96.8518 309.555 96.4324C310.478 96.0568 311.349 95.5775 312.228 95.1315C313.081 94.6308 313.946 94.1462 314.754 93.5752C317.145 91.9549 319.305 90.0174 321.117 87.7876C322.922 85.5527 324.393 83.0586 325.496 80.4037C327.707 75.0822 328.377 69.1565 327.814 63.3851C327.25 57.5911 325.464 51.9505 322.662 46.8221C319.876 41.6756 316.18 37.0281 311.966 32.8918C307.747 28.7614 303.045 25.0832 298.016 21.9027C296.757 21.1148 295.507 20.3037 294.237 19.5278L290.331 17.3652C289.045 16.6074 287.68 16.0134 286.345 15.3552C285 14.7203 283.685 14.0211 282.29 13.4857L278.167 11.768C276.773 11.2495 275.36 10.772 273.957 10.2711C273.25 10.0323 272.558 9.75299 271.842 9.54876L269.701 8.91878L267.559 8.28881L266.485 7.97405C266.128 7.87475 265.76 7.79875 265.398 7.71109L261.052 6.68724C260.332 6.50027 259.59 6.39971 258.862 6.25853L256.663 5.86426L254.464 5.47005L252.245 5.1903C250.768 5.01679 249.294 4.79228 247.809 4.66456L243.809 4.38527C243.139 4.34742 242.478 4.26381 241.805 4.26573L239.801 4.2309C238.466 4.21707 237.127 4.1639 235.789 4.18422L231.779 4.33519C231.114 4.36484 230.441 4.36672 229.778 4.42449L227.784 4.60951C226.453 4.7367 225.12 4.84135 223.79 4.98542L219.823 5.57438C219.163 5.67716 218.502 5.76307 217.842 5.87147L215.88 6.27462L211.956 7.08655L208.088 8.1208L206.151 8.63524L204.237 9.23858C203.601 9.44143 202.958 9.63339 202.323 9.84748L200.424 10.5063C195.37 12.2849 190.41 14.3735 185.507 16.622C175.702 21.1303 166.116 26.2563 156.191 30.8295C146.285 35.4241 135.921 39.3836 125.043 41.4912C119.945 42.4872 114.739 43.0669 109.503 43.0664C104.267 43.0658 99.0059 42.4623 93.9033 41.1354L91.9908 40.6306C91.3448 40.4498 90.6901 40.2244 90.0575 39.9917C88.7803 39.5159 87.5425 38.9583 86.3442 38.3187C83.9537 37.0448 81.7063 35.4726 79.7225 33.5484C77.7504 31.629 76.0115 29.3259 74.9753 26.5609C74.4552 25.1899 74.1691 23.6894 74.1422 22.1763C74.121 20.6629 74.3814 19.1354 74.8881 17.732C75.3903 16.3458 76.1211 14.9945 77.096 13.8182C78.0653 12.6424 79.2629 11.6597 80.5507 10.9138C83.1544 9.4199 86.0147 8.84633 88.75 8.66595C91.503 8.49565 94.2043 8.719 96.8363 9.16199C99.4735 9.59898 102.042 10.2725 104.555 11.1026C105.804 11.5069 107.077 11.9999 108.258 12.4767L111.819 13.9173C114.195 14.8983 116.573 15.9187 118.925 17.0371C123.616 19.2746 128.241 21.9295 132.324 25.408C135.864 28.4045 138.884 32.1215 141.025 36.2901C143.138 40.4719 144.415 45.2154 144.172 50.0598C143.958 54.9135 142.016 59.6394 138.887 63.3068C137.337 65.1564 135.489 66.7048 133.522 68.007C131.555 69.3093 129.452 70.3611 127.307 71.2124C122.992 72.8996 118.501 73.8362 114.001 74.338C109.501 74.8286 104.981 74.8797 100.492 74.5668C91.6343 73.9496 82.8184 72.7246 74.1219 70.943C72.0782 70.504 69.931 70.0383 67.7206 69.5601C65.5232 69.0245 63.2571 68.4767 60.9737 67.9245C58.7072 67.2919 56.4131 66.667 54.1391 66.0067C51.8889 65.2826 49.6463 64.5862 47.4789 63.8336C45.7028 63.178 43.6149 62.4312 41.4019 61.5915C40.3022 61.1485 39.1672 60.6854 38.0149 60.2178C36.8674 59.7386 35.6834 59.3016 34.5376 58.7657C29.907 56.75 25.3714 54.5581 22.0585 52.7892C20.6305 52.0188 19.1789 51.233 17.7329 50.4469C16.3026 49.6427 14.888 48.8204 13.4946 48.0589C12.7003 47.6171 11.9257 47.2136 11.217 46.7828C10.5083 46.352 9.83532 45.9469 9.1977 45.562C7.92206 44.7865 6.79339 44.0912 5.81051 43.4591C3.88059 42.1416 2.50962 41.1355 1.67955 40.4249C0.0190187 38.9981 0.510823 38.7544 2.93664 39.4832C3.99951 39.8044 3.21528 38.7797 6.23728 40.5124C6.36096 40.5829 6.61394 40.7235 6.72597 40.7891C7.87922 41.4318 9.07315 42.0095 10.2377 42.6515C11.4018 43.2878 12.5663 43.9297 13.7304 44.566C14.9102 45.1843 16.0856 45.8198 17.2557 46.4613L19.0145 47.4347L20.7983 48.3611C21.9841 48.9846 23.176 49.6133 24.3678 50.242C25.5593 50.8651 26.787 51.4404 27.9941 52.0454C29.2109 52.6272 30.4096 53.2723 31.657 53.8067C32.8944 54.3587 34.1374 54.9104 35.3804 55.462C36.8992 56.1583 38.4609 56.7384 40.0035 57.3708C41.551 57.9916 43.0941 58.6296 44.6702 59.1749L49.3749 60.8744L54.1311 62.4235C55.7069 62.9631 57.325 63.3811 58.9245 63.8569L61.3255 64.5535C62.1277 64.7856 62.9379 64.9718 63.7442 65.181C65.3611 65.5821 66.9748 66.0173 68.5957 66.3955L73.4825 67.4662C80.0205 68.783 86.6038 69.8591 93.2432 70.5244C94.8965 70.7194 96.5653 70.8116 98.2264 70.9552L100.717 71.1594C101.54 71.2035 102.363 71.2532 103.185 71.2748C106.478 71.3832 109.772 71.2711 113.027 70.9243C116.281 70.5662 119.514 69.9835 122.609 69.0431C125.71 68.1192 128.691 66.842 131.328 65.1027C132.647 64.2358 133.879 63.2564 134.978 62.1563C136.071 61.0509 137.031 59.8248 137.821 58.5033C138.61 57.1818 139.24 55.7584 139.69 54.2798C139.87 53.5324 140.112 52.7976 140.2 52.0339C140.252 51.6516 140.35 51.2773 140.363 50.892L140.446 49.7387C140.479 48.1932 140.415 46.6319 140.098 45.094L140.001 44.5129L139.859 43.9406L139.57 42.7965C139.314 42.0513 139.113 41.2853 138.791 40.5617C138.24 39.0797 137.486 37.6686 136.688 36.2944C135.858 34.9338 134.941 33.6245 133.916 32.4018C132.886 31.1795 131.799 30.0234 130.582 28.9612C129.393 27.8801 128.113 26.8845 126.792 25.9426C125.475 24.9891 124.081 24.1372 122.677 23.3029C121.252 22.4927 119.812 21.7118 118.331 20.9847C114.7 19.1929 110.921 17.6375 107.099 16.1022C103.36 14.5441 99.5362 13.3988 95.6081 12.7753C93.6535 12.477 91.685 12.3041 89.7556 12.3658C88.7908 12.3939 87.8346 12.4665 86.9017 12.628C85.9736 12.7778 85.0615 12.9943 84.2071 13.3086C83.3528 13.6228 82.5425 14.0018 81.8133 14.4882C81.0901 14.9798 80.4467 15.5618 79.8993 16.222C79.3402 16.8773 78.9132 17.6421 78.5685 18.4519C78.2126 19.2626 77.9775 20.1044 77.8739 20.9652C77.6602 22.6759 77.9869 24.4336 78.7297 26.0774C79.4673 27.7271 80.6032 29.2529 81.9364 30.6065C84.6142 33.3187 88.0457 35.407 91.6766 36.7127C92.1349 36.8784 92.5804 37.0225 93.0592 37.1585L94.5054 37.5433C95.4675 37.7981 96.4255 38.0757 97.4151 38.2381C98.3998 38.4122 99.3663 38.6498 100.359 38.778L103.332 39.1576C107.315 39.5284 111.34 39.5065 115.342 39.1695C124.127 38.4294 132.72 35.9902 141.226 33.0257L141.082 33.0753C149.924 29.8329 158.418 25.5804 166.96 21.3529C175.041 17.3441 183.243 13.1969 191.816 9.6624C196.102 7.89798 200.479 6.29118 204.954 4.94885L208.339 4.04456L210.032 3.59244C210.598 3.43972 211.158 3.28177 211.733 3.17928L215.161 2.46994C216.303 2.23161 217.445 1.982 218.6 1.8389C237.008 -1.17512 255.856 0.477388 272.663 5.85098C273.337 6.02984 274.103 6.30966 274.954 6.59483C275.835 6.8949 276.762 7.21432 277.735 7.54746Z" fill="#6DBCE9"/>
</svg>
