<svg width="150" height="17" viewBox="0 0 150 17" fill="none" xmlns="http://www.w3.org/2000/svg">
<path opacity="0.6" d="M8.484 3.572C8.40933 3.66533 8.26933 3.74 8.064 3.796C7.87733 3.83333 7.68133 3.77733 7.476 3.628C7.32667 3.516 7.14933 3.404 6.944 3.292C6.73867 3.16133 6.51467 3.04 6.272 2.928C6.02933 2.816 5.78667 2.72267 5.544 2.648C5.30133 2.57333 5.068 2.536 4.844 2.536C4.564 2.536 4.26533 2.60133 3.948 2.732C3.64933 2.86267 3.388 3.04933 3.164 3.292C2.73467 3.75867 2.576 4.216 2.688 4.664C2.81867 5.09333 3.14533 5.49467 3.668 5.868C4.004 6.11067 4.368 6.36267 4.76 6.624C5.152 6.86667 5.53467 7.10933 5.908 7.352C6.3 7.59467 6.664 7.828 7 8.052C7.35467 8.276 7.66267 8.472 7.924 8.64C8.26 8.864 8.57733 9.10667 8.876 9.368C9.17467 9.62933 9.436 9.928 9.66 10.264C9.884 10.5813 10.0613 10.9453 10.192 11.356C10.3227 11.7667 10.388 12.2333 10.388 12.756C10.2573 13.7827 9.84667 14.604 9.156 15.22C8.484 15.8173 7.7 16.2 6.804 16.368C6.02 16.5173 5.24533 16.4893 4.48 16.284C3.73333 16.0787 3.09867 15.6867 2.576 15.108C2.44533 14.9587 2.33333 14.7533 2.24 14.492C2.14667 14.2307 2.13733 14.044 2.212 13.932C2.324 13.764 2.52 13.652 2.8 13.596C3.08 13.5213 3.29467 13.5307 3.444 13.624C3.87333 14.016 4.37733 14.3053 4.956 14.492C5.53467 14.66 6.14133 14.6693 6.776 14.52C7.26133 14.408 7.65333 14.2027 7.952 13.904C8.25067 13.5867 8.43733 13.232 8.512 12.84C8.60533 12.4293 8.54933 12.0093 8.344 11.58C8.15733 11.132 7.812 10.7307 7.308 10.376C6.54267 9.79733 5.72133 9.256 4.844 8.752C3.98533 8.248 3.108 7.66933 2.212 7.016C1.78267 6.64267 1.46533 6.232 1.26 5.784C1.07333 5.336 0.98 4.89733 0.98 4.468C0.98 4.02 1.07333 3.6 1.26 3.208C1.44667 2.79733 1.708 2.43333 2.044 2.116C2.38 1.78 2.772 1.50933 3.22 1.304C3.668 1.09867 4.16267 0.977333 4.704 0.939999C5.45067 0.902666 6.16933 1.06133 6.86 1.416C7.55067 1.752 8.11067 2.172 8.54 2.676C8.63333 2.788 8.67067 2.928 8.652 3.096C8.652 3.264 8.596 3.42267 8.484 3.572ZM17.9516 15.556C17.9329 15.7613 17.8676 15.9573 17.7556 16.144C17.6623 16.312 17.5129 16.3867 17.3076 16.368C16.9903 16.3493 16.7103 16.228 16.4676 16.004C16.2436 15.78 16.1316 15.5933 16.1316 15.444C16.1503 13.82 16.0943 12.168 15.9636 10.488C15.8516 8.78933 15.6649 7.1 15.4036 5.42C15.4036 5.34533 15.4223 5.26133 15.4596 5.168C15.4969 5.09333 15.5436 5.00933 15.5996 4.916C15.6556 4.804 15.7489 4.70133 15.8796 4.608C16.0103 4.552 16.1503 4.56133 16.2996 4.636C16.4676 4.71067 16.6263 4.82267 16.7756 4.972C16.9249 5.12133 17.0556 5.28933 17.1676 5.476C17.2796 5.66267 17.3636 5.84 17.4196 6.008C17.4756 6.38133 17.5316 6.792 17.5876 7.24C17.6436 7.688 17.6903 8.15467 17.7276 8.64C18.1756 8.39733 18.6049 8.12667 19.0156 7.828C19.4263 7.52933 19.7809 7.20267 20.0796 6.848C20.3969 6.49333 20.6396 6.12933 20.8076 5.756C20.9756 5.364 21.0316 4.96267 20.9756 4.552C20.9383 4.23467 20.7983 3.94533 20.5556 3.684C20.3129 3.42267 19.9396 3.22667 19.4356 3.096C18.2783 2.83467 17.2423 2.82533 16.3276 3.068C15.4129 3.292 14.5356 3.67467 13.6956 4.216C13.4529 4.40267 13.2289 4.51467 13.0236 4.552C12.8183 4.58933 12.6409 4.58 12.4916 4.524C12.3423 4.468 12.2303 4.384 12.1556 4.272C12.0809 4.16 12.0436 4.048 12.0436 3.936C12.0809 3.50667 12.2863 3.124 12.6596 2.788C13.0516 2.43333 13.4623 2.13467 13.8916 1.892C14.4516 1.612 15.1423 1.37867 15.9636 1.192C16.7849 1.00533 17.6063 0.939999 18.4276 0.996C19.2676 1.03333 20.0516 1.22933 20.7796 1.584C21.5076 1.93867 22.0676 2.508 22.4596 3.292C22.8143 4.22533 22.8889 5.06533 22.6836 5.812C22.4969 6.55867 22.1516 7.24 21.6476 7.856C21.1436 8.472 20.5463 9.04133 19.8556 9.564C19.1649 10.068 18.5116 10.5347 17.8956 10.964C17.9329 11.7853 17.9516 12.588 17.9516 13.372C17.9703 14.156 17.9703 14.884 17.9516 15.556ZM33.8826 8.556C33.9573 8.74267 33.8826 8.92933 33.6586 9.116C33.4346 9.284 33.0799 9.396 32.5946 9.452C31.7546 9.564 30.8959 9.68533 30.0186 9.816C29.1413 9.928 28.2453 10.0493 27.3306 10.18C27.2933 11.132 27.2933 12.084 27.3306 13.036C27.7599 13.036 28.2733 12.9987 28.8706 12.924C29.4866 12.8307 30.1119 12.7187 30.7466 12.588C31.3813 12.4573 31.9879 12.3267 32.5666 12.196C33.1639 12.0467 33.6679 11.9253 34.0786 11.832C34.2839 11.776 34.4986 11.7387 34.7226 11.72C34.9466 11.6827 35.1426 11.6827 35.3106 11.72C35.4973 11.7387 35.6466 11.804 35.7586 11.916C35.8706 12.028 35.9266 12.1867 35.9266 12.392C35.9266 12.448 35.8613 12.532 35.7306 12.644C35.5999 12.756 35.4319 12.8773 35.2266 13.008C35.0399 13.12 34.8346 13.232 34.6106 13.344C34.4053 13.4373 34.2186 13.512 34.0506 13.568C32.8933 13.9413 31.7546 14.268 30.6346 14.548C29.5146 14.8093 28.4226 14.9493 27.3586 14.968C26.7426 14.9867 26.2759 14.828 25.9586 14.492C25.6413 14.1373 25.4733 13.6333 25.4546 12.98C25.4173 12.0653 25.4173 11.1413 25.4546 10.208C25.1373 10.0213 24.9786 9.76 24.9786 9.424C25.0159 9.06933 25.1839 8.82667 25.4826 8.696C25.5199 8.15467 25.5479 7.61333 25.5666 7.072C25.5853 6.512 25.6133 5.96133 25.6506 5.42C25.4453 5.38267 25.2586 5.28 25.0906 5.112C24.9413 4.944 24.8666 4.75733 24.8666 4.552C24.8666 4.384 24.9039 4.23467 24.9786 4.104C25.0533 3.95467 25.1933 3.84267 25.3986 3.768C25.7346 3.69333 26.1453 3.60933 26.6306 3.516C27.1159 3.42267 27.6106 3.33867 28.1146 3.264C28.6373 3.18933 29.1319 3.124 29.5986 3.068C30.0839 3.012 30.4946 2.97467 30.8306 2.956C31.2226 2.91867 31.5959 2.956 31.9506 3.068C32.3239 3.18 32.6693 3.39467 32.9866 3.712C33.0613 3.97333 33.0053 4.16933 32.8186 4.3C32.6506 4.43067 32.4266 4.51467 32.1466 4.552C31.8666 4.58933 31.5306 4.636 31.1386 4.692C30.7466 4.72933 30.3359 4.776 29.9066 4.832C29.4959 4.888 29.0759 4.944 28.6466 5C28.2359 5.03733 27.8439 5.084 27.4706 5.14C27.4706 5.17733 27.4706 5.224 27.4706 5.28C27.4893 5.31733 27.4986 5.35467 27.4986 5.392C27.4613 5.87733 27.4333 6.36267 27.4146 6.848C27.3959 7.33333 27.3773 7.81867 27.3586 8.304C28.1426 8.17333 28.9453 8.06133 29.7666 7.968C30.5879 7.856 31.2413 7.78133 31.7266 7.744C32.1186 7.70667 32.5013 7.75333 32.8746 7.884C33.2479 8.01467 33.5839 8.23867 33.8826 8.556ZM43.987 5.252C44.0616 5.34533 44.099 5.46667 44.099 5.616C44.1176 5.74667 44.099 5.85867 44.043 5.952C43.9496 6.15733 43.791 6.232 43.567 6.176C43.175 6.08267 42.7643 6.04533 42.335 6.064C41.9056 6.08267 41.4763 6.25067 41.047 6.568C40.6176 6.88533 40.2816 7.352 40.039 7.968C39.7963 8.56533 39.675 9.19067 39.675 9.844C39.675 10.4787 39.8243 11.0293 40.123 11.496C40.4403 11.944 40.8416 12.2707 41.327 12.476C41.6256 12.6067 41.9616 12.6813 42.335 12.7C42.7083 12.7187 43.0816 12.7093 43.455 12.672C43.847 12.616 44.2296 12.5413 44.603 12.448C44.9763 12.336 45.331 12.2147 45.667 12.084C45.779 12.0467 45.8816 12.056 45.975 12.112C46.087 12.168 46.1616 12.2427 46.199 12.336C46.2923 12.5787 46.2456 12.8213 46.059 13.064C45.835 13.3067 45.5363 13.5213 45.163 13.708C44.7896 13.8947 44.379 14.044 43.931 14.156C43.483 14.268 43.0256 14.3333 42.559 14.352C42.0923 14.352 41.6536 14.296 41.243 14.184C40.6643 14.0347 40.1696 13.82 39.759 13.54C39.367 13.2413 39.0403 12.9053 38.779 12.532C38.5176 12.14 38.3216 11.7293 38.191 11.3C38.0603 10.852 37.9856 10.3947 37.967 9.928C37.9296 8.808 38.1443 7.8 38.611 6.904C39.0963 6.008 39.7683 5.34533 40.627 4.916C41.2616 4.59867 41.8963 4.47733 42.531 4.552C43.1843 4.608 43.6696 4.84133 43.987 5.252ZM52.036 13.12C52.0546 13.1947 52.064 13.3067 52.064 13.456C52.064 13.5867 52.036 13.7267 51.98 13.876C51.924 14.0067 51.84 14.128 51.728 14.24C51.6346 14.3333 51.4946 14.38 51.308 14.38C50.8973 14.1187 50.552 13.7733 50.272 13.344C50.1226 12.784 49.9826 12.14 49.852 11.412C49.74 10.684 49.6466 9.928 49.572 9.144C49.4973 8.34133 49.4413 7.52933 49.404 6.708C49.3853 5.88667 49.3853 5.09333 49.404 4.328C49.404 4.19733 49.4133 4.02933 49.432 3.824C49.4693 3.61867 49.5253 3.42267 49.6 3.236C49.6746 3.03067 49.768 2.86267 49.88 2.732C49.992 2.58267 50.1506 2.508 50.356 2.508C50.5986 2.508 50.7946 2.58267 50.944 2.732C51.0933 2.88133 51.168 3.124 51.168 3.46C51.1493 4.20667 51.1493 5.00933 51.168 5.868C51.2053 6.708 51.2613 7.55733 51.336 8.416C51.4106 9.27467 51.504 10.1147 51.616 10.936C51.7466 11.7387 51.8866 12.4667 52.036 13.12ZM56.9269 15.528C56.8335 15.8453 56.7122 16.1347 56.5629 16.396C56.4135 16.6387 56.2549 16.7787 56.0869 16.816C55.7322 16.9093 55.4615 16.8533 55.2749 16.648C55.0882 16.4427 55.0135 16.1813 55.0509 15.864C55.2002 14.744 55.4429 13.568 55.7789 12.336C56.1149 11.0853 56.5069 9.844 56.9549 8.612C57.4029 7.36133 57.8882 6.15733 58.4109 5C58.9522 3.824 59.5029 2.76 60.0629 1.808C60.1562 1.65867 60.2589 1.57467 60.3709 1.556C60.5015 1.51867 60.6135 1.51867 60.7069 1.556C60.8002 1.48133 60.9122 1.416 61.0429 1.36C61.1735 1.304 61.3042 1.276 61.4349 1.276C61.4909 1.276 61.5469 1.28533 61.6029 1.304C61.6775 1.32267 61.7522 1.37867 61.8269 1.472C61.9015 1.56533 61.9855 1.70533 62.0789 1.892C62.1909 2.06 62.3215 2.312 62.4709 2.648C62.7322 3.6 63.0309 4.58 63.3669 5.588C63.7215 6.596 64.0855 7.604 64.4589 8.612C64.5149 8.59333 64.5615 8.584 64.5989 8.584C64.6549 8.56533 64.7109 8.54667 64.7669 8.528C64.9722 8.50933 65.2055 8.51867 65.4669 8.556C65.7282 8.59333 65.9055 8.724 65.9989 8.948C66.1109 9.228 66.0922 9.47067 65.9429 9.676C65.7935 9.88133 65.5229 10.0867 65.1309 10.292C65.3735 10.8893 65.6162 11.4773 65.8589 12.056C66.1015 12.616 66.3535 13.1667 66.6149 13.708C66.6335 13.8013 66.6615 13.9507 66.6989 14.156C66.7362 14.3427 66.7549 14.5387 66.7549 14.744C66.7735 14.9307 66.7642 15.108 66.7269 15.276C66.6895 15.444 66.6149 15.556 66.5029 15.612C66.3722 15.668 66.2322 15.6587 66.0829 15.584C65.9522 15.5093 65.8215 15.416 65.6909 15.304C65.5602 15.1733 65.4389 15.0427 65.3269 14.912C65.2335 14.7627 65.1589 14.632 65.1029 14.52C64.7855 13.904 64.4775 13.288 64.1789 12.672C63.8989 12.0373 63.6282 11.4027 63.3669 10.768C62.5829 10.9173 61.7242 11.048 60.7909 11.16C59.8762 11.272 58.9709 11.3467 58.0749 11.384C57.8695 12.0933 57.6642 12.7933 57.4589 13.484C57.2722 14.156 57.0949 14.8373 56.9269 15.528ZM60.9029 3.768C60.0442 5.69067 59.2975 7.61333 58.6629 9.536C59.9135 9.49867 61.2482 9.34 62.6669 9.06C61.9949 7.36133 61.4069 5.59733 60.9029 3.768ZM72.2338 4.244C72.1404 4.89733 72.0564 5.62533 71.9818 6.428C71.9071 7.212 71.8324 8.01467 71.7578 8.836C71.6831 9.63867 71.6084 10.4227 71.5338 11.188C71.4778 11.9533 71.4311 12.6253 71.3938 13.204C72.0284 13.092 72.7284 12.9613 73.4938 12.812C74.2778 12.6627 75.0711 12.5133 75.8738 12.364C76.6764 12.196 77.4604 12.056 78.2258 11.944C79.0098 11.8133 79.7191 11.72 80.3538 11.664C80.4098 11.664 80.4751 11.6827 80.5498 11.72C80.6991 11.7947 80.7738 11.916 80.7738 12.084C80.7738 12.3267 80.7271 12.5133 80.6338 12.644C80.5404 12.756 80.4284 12.8493 80.2978 12.924C80.1671 12.98 80.0271 13.036 79.8778 13.092C79.7471 13.148 79.6258 13.232 79.5138 13.344C78.9351 13.4933 78.3004 13.652 77.6098 13.82C76.9191 13.988 76.2098 14.156 75.4818 14.324C74.7538 14.492 74.0258 14.66 73.2978 14.828C72.5698 14.996 71.8884 15.164 71.2538 15.332C70.6751 15.4813 70.2364 15.3787 69.9378 15.024C69.6391 14.6693 69.5178 14.0907 69.5738 13.288C69.6671 11.776 69.7791 10.264 69.9098 8.752C70.0404 7.22133 70.1991 5.7 70.3858 4.188C70.4231 3.87067 70.5258 3.60933 70.6938 3.404C70.8804 3.19867 71.1044 3.07733 71.3658 3.04C71.7951 2.984 72.0471 3.096 72.1218 3.376C72.2151 3.63733 72.2524 3.92667 72.2338 4.244ZM96.4588 8.108C96.3654 8.108 96.2441 8.09867 96.0948 8.08C95.9641 8.04267 95.8334 7.996 95.7028 7.94C95.5908 7.86533 95.4881 7.78133 95.3948 7.688C95.3014 7.576 95.2548 7.464 95.2548 7.352C95.2548 7.20267 95.3388 7.02533 95.5068 6.82C95.6934 6.596 95.9921 6.428 96.4028 6.316C96.9628 6.18533 97.5508 6.11067 98.1668 6.092C98.7828 6.05467 99.3988 6.05467 100.015 6.092C100.631 6.11067 101.237 6.148 101.835 6.204C102.432 6.24133 102.992 6.26933 103.515 6.288C103.813 6.288 104.009 6.344 104.103 6.456C104.196 6.568 104.243 6.69867 104.243 6.848C104.243 7.184 104.093 7.44533 103.795 7.632C103.496 7.81867 103.197 7.90267 102.899 7.884C102.581 7.86533 102.245 7.856 101.891 7.856C101.555 7.856 101.2 7.856 100.827 7.856C100.827 8.37867 100.845 8.96667 100.883 9.62C100.939 10.2547 100.995 10.8987 101.051 11.552C101.107 12.2053 101.163 12.8307 101.219 13.428C101.293 14.0253 101.359 14.5293 101.415 14.94C101.452 15.0893 101.415 15.2293 101.303 15.36C101.209 15.472 101.06 15.528 100.855 15.528C100.463 15.528 100.173 15.2853 99.9868 14.8C99.6321 13.8853 99.3801 12.84 99.2308 11.664C98.2228 12.28 97.2334 12.6627 96.2628 12.812C95.2921 12.9613 94.4148 12.9333 93.6308 12.728C92.8654 12.504 92.2401 12.1307 91.7548 11.608C91.2881 11.0667 91.0548 10.4133 91.0548 9.648C91.0548 8.92 91.1854 8.136 91.4468 7.296C91.7081 6.456 92.0814 5.644 92.5668 4.86C93.0521 4.076 93.6214 3.36667 94.2748 2.732C94.9468 2.07867 95.6934 1.584 96.5148 1.248C96.7948 1.17333 97.0561 1.164 97.2988 1.22C97.5601 1.25733 97.7934 1.35067 97.9988 1.5C98.2228 1.63067 98.4188 1.79867 98.5868 2.004C98.7734 2.19067 98.9321 2.37733 99.0628 2.564C99.1561 2.69467 99.2121 2.83467 99.2308 2.984C99.2494 3.13333 99.1934 3.27333 99.0628 3.404C98.7828 3.60933 98.5401 3.59067 98.3348 3.348C98.0174 2.956 97.7468 2.72267 97.5228 2.648C97.3174 2.55467 97.0281 2.62933 96.6548 2.872C96.2814 3.13333 95.8708 3.53467 95.4228 4.076C94.9748 4.59867 94.5548 5.18667 94.1628 5.84C93.7894 6.47467 93.4908 7.13733 93.2668 7.828C93.0428 8.5 92.9681 9.12533 93.0428 9.704C93.0988 10.208 93.3788 10.572 93.8828 10.796C94.3868 11.0013 94.9561 11.0947 95.5908 11.076C96.2441 11.0573 96.8881 10.936 97.5228 10.712C98.1761 10.488 98.6801 10.1893 99.0348 9.816C99.0161 9.49867 98.9974 9.18133 98.9788 8.864C98.9601 8.528 98.9508 8.20133 98.9508 7.884C98.5401 7.92133 98.1294 7.95867 97.7188 7.996C97.3081 8.01467 96.8881 8.052 96.4588 8.108ZM109.891 13.12C109.91 13.1947 109.919 13.3067 109.919 13.456C109.919 13.5867 109.891 13.7267 109.835 13.876C109.779 14.0067 109.695 14.128 109.583 14.24C109.49 14.3333 109.35 14.38 109.163 14.38C108.753 14.1187 108.407 13.7733 108.127 13.344C107.978 12.784 107.838 12.14 107.707 11.412C107.595 10.684 107.502 9.928 107.427 9.144C107.353 8.34133 107.297 7.52933 107.259 6.708C107.241 5.88667 107.241 5.09333 107.259 4.328C107.259 4.19733 107.269 4.02933 107.287 3.824C107.325 3.61867 107.381 3.42267 107.455 3.236C107.53 3.03067 107.623 2.86267 107.735 2.732C107.847 2.58267 108.006 2.508 108.211 2.508C108.454 2.508 108.65 2.58267 108.799 2.732C108.949 2.88133 109.023 3.124 109.023 3.46C109.005 4.20667 109.005 5.00933 109.023 5.868C109.061 6.708 109.117 7.55733 109.191 8.416C109.266 9.27467 109.359 10.1147 109.471 10.936C109.602 11.7387 109.742 12.4667 109.891 13.12ZM122.258 3.432C122.221 3.544 122.09 3.67467 121.866 3.824C121.642 3.97333 121.456 4.048 121.306 4.048C120.504 3.97333 119.701 3.908 118.898 3.852C118.114 3.796 117.312 3.75867 116.49 3.74C116.602 4.39333 116.705 5.04667 116.798 5.7C116.91 6.35333 117.013 7.00667 117.106 7.66C118.693 7.604 120.261 7.52 121.81 7.408C122.072 7.408 122.333 7.492 122.594 7.66C122.856 7.828 122.986 7.98667 122.986 8.136C122.986 8.34133 122.902 8.528 122.734 8.696C122.566 8.84533 122.361 8.93867 122.118 8.976C121.334 9.10667 120.541 9.20933 119.738 9.284C118.954 9.34 118.152 9.38667 117.33 9.424C117.424 10.0773 117.498 10.7307 117.554 11.384C117.629 12.0187 117.694 12.6533 117.75 13.288C117.788 13.5493 117.76 13.8293 117.666 14.128C117.592 14.408 117.461 14.548 117.274 14.548C117.106 14.548 116.948 14.5013 116.798 14.408C116.649 14.3147 116.509 14.212 116.378 14.1C116.266 13.9693 116.173 13.8293 116.098 13.68C116.024 13.5307 115.977 13.4 115.958 13.288C115.772 11.6827 115.566 10.0867 115.342 8.5C115.137 6.91333 114.904 5.31733 114.642 3.712H113.718C113.457 3.712 113.214 3.684 112.99 3.628C112.766 3.572 112.598 3.432 112.486 3.208C112.449 3.152 112.421 3.05867 112.402 2.928C112.402 2.79733 112.412 2.66667 112.43 2.536C112.468 2.40533 112.524 2.284 112.598 2.172C112.673 2.06 112.776 1.98533 112.906 1.948C113.634 1.836 114.409 1.78933 115.23 1.808C116.07 1.82667 116.882 1.88267 117.666 1.976C118.469 2.05067 119.216 2.16267 119.906 2.312C120.616 2.46133 121.222 2.62 121.726 2.788C122.044 2.97467 122.221 3.18933 122.258 3.432ZM136.969 4.356C135.046 4.26267 133.198 4.412 131.425 4.804C129.651 5.196 127.897 5.728 126.16 6.4C125.713 6.568 125.367 6.54933 125.125 6.344C124.901 6.13867 124.789 5.93333 124.789 5.728C124.919 5.37333 125.153 5.084 125.489 4.86C129.315 2.99333 133.142 2.30267 136.969 2.788C137.155 2.844 137.305 2.984 137.417 3.208C137.547 3.41333 137.594 3.59067 137.557 3.74C137.519 3.92667 137.463 4.08533 137.389 4.216C137.314 4.328 137.174 4.37467 136.969 4.356ZM132.993 14.128C132.993 14.3333 132.918 14.52 132.769 14.688C132.638 14.8373 132.47 14.9307 132.265 14.968C131.891 15.024 131.649 14.9587 131.537 14.772C131.425 14.5853 131.359 14.3707 131.341 14.128C131.322 12.8213 131.294 11.524 131.257 10.236C131.238 8.92933 131.182 7.62267 131.089 6.316C131.089 6.24133 131.079 6.15733 131.061 6.064C131.042 5.952 131.042 5.84933 131.061 5.756C131.079 5.644 131.117 5.55067 131.173 5.476C131.247 5.40133 131.359 5.34533 131.508 5.308C131.938 5.23333 132.246 5.308 132.433 5.532C132.619 5.73733 132.713 5.94267 132.713 6.148C132.862 7.492 132.955 8.82667 132.993 10.152C133.03 11.4773 133.03 12.8027 132.993 14.128ZM147.605 3.572C147.53 3.66533 147.39 3.74 147.185 3.796C146.998 3.83333 146.802 3.77733 146.597 3.628C146.448 3.516 146.27 3.404 146.065 3.292C145.86 3.16133 145.636 3.04 145.393 2.928C145.15 2.816 144.908 2.72267 144.665 2.648C144.422 2.57333 144.189 2.536 143.965 2.536C143.685 2.536 143.386 2.60133 143.069 2.732C142.77 2.86267 142.509 3.04933 142.285 3.292C141.856 3.75867 141.697 4.216 141.809 4.664C141.94 5.09333 142.266 5.49467 142.789 5.868C143.125 6.11067 143.489 6.36267 143.881 6.624C144.273 6.86667 144.656 7.10933 145.029 7.352C145.421 7.59467 145.785 7.828 146.121 8.052C146.476 8.276 146.784 8.472 147.045 8.64C147.381 8.864 147.698 9.10667 147.997 9.368C148.296 9.62933 148.557 9.928 148.781 10.264C149.005 10.5813 149.182 10.9453 149.313 11.356C149.444 11.7667 149.509 12.2333 149.509 12.756C149.378 13.7827 148.968 14.604 148.277 15.22C147.605 15.8173 146.821 16.2 145.925 16.368C145.141 16.5173 144.366 16.4893 143.601 16.284C142.854 16.0787 142.22 15.6867 141.697 15.108C141.566 14.9587 141.454 14.7533 141.361 14.492C141.268 14.2307 141.258 14.044 141.333 13.932C141.445 13.764 141.641 13.652 141.921 13.596C142.201 13.5213 142.416 13.5307 142.565 13.624C142.994 14.016 143.498 14.3053 144.077 14.492C144.656 14.66 145.262 14.6693 145.897 14.52C146.382 14.408 146.774 14.2027 147.073 13.904C147.372 13.5867 147.558 13.232 147.633 12.84C147.726 12.4293 147.67 12.0093 147.465 11.58C147.278 11.132 146.933 10.7307 146.429 10.376C145.664 9.79733 144.842 9.256 143.965 8.752C143.106 8.248 142.229 7.66933 141.333 7.016C140.904 6.64267 140.586 6.232 140.381 5.784C140.194 5.336 140.101 4.89733 140.101 4.468C140.101 4.02 140.194 3.6 140.381 3.208C140.568 2.79733 140.829 2.43333 141.165 2.116C141.501 1.78 141.893 1.50933 142.341 1.304C142.789 1.09867 143.284 0.977333 143.825 0.939999C144.572 0.902666 145.29 1.06133 145.981 1.416C146.672 1.752 147.232 2.172 147.661 2.676C147.754 2.788 147.792 2.928 147.773 3.096C147.773 3.264 147.717 3.42267 147.605 3.572Z" fill="#000E1F"/>
</svg>
