<svg width="115" height="55" viewBox="0 0 115 55" fill="none" xmlns="http://www.w3.org/2000/svg">
<path d="M23.2954 22.9733C25.3784 24.4663 27.9303 25.3448 30.6864 25.3448V20.0269C30.1648 20.0271 29.6445 19.9725 29.1343 19.8641V24.05C26.3783 24.05 23.8268 23.1716 21.7432 21.6786V32.5308C21.7432 37.9595 17.3541 42.3601 11.94 42.3601C9.91999 42.3601 8.04238 41.7478 6.48267 40.6976C8.26282 42.5226 10.7454 43.6548 13.4919 43.6548C18.9062 43.6548 23.2955 39.2542 23.2955 33.8252L23.2954 22.9733ZM25.2101 17.6082C24.1456 16.4421 23.4466 14.935 23.2954 13.269V12.585H21.8244C22.1947 14.7026 23.4575 16.5118 25.2101 17.6082ZM9.90704 36.5317C9.31222 35.7497 8.99079 34.7932 8.99224 33.8096C8.99224 31.3267 10.9998 29.3135 13.4766 29.3135C13.9382 29.3134 14.397 29.3843 14.8369 29.5242V24.0876C14.3228 24.0169 13.804 23.987 13.2854 23.998V28.2296C12.8452 28.0896 12.3861 28.0185 11.9244 28.019C9.44764 28.019 7.44017 30.0319 7.44017 32.5152C7.44017 34.271 8.44362 35.7911 9.90704 36.5317Z" fill="#05060F" fill-opacity="0.16"/>
<path d="M21.7442 21.6785C23.8279 23.1715 26.3793 24.0499 29.1353 24.0499V19.864C27.5969 19.5354 26.2351 18.7294 25.2112 17.6082C23.4585 16.5116 22.1958 14.7025 21.8254 12.585H17.9618V33.8249C17.9531 36.3011 15.949 38.3061 13.4774 38.3061C12.021 38.3061 10.7272 37.61 9.90774 36.5317C8.44445 35.7911 7.44099 34.271 7.44099 32.5153C7.44099 30.0323 9.44843 28.0191 11.9252 28.0191C12.3998 28.0191 12.8571 28.0931 13.2862 28.2297V23.998C7.96735 24.1082 3.6897 28.4658 3.6897 33.8251C3.6897 36.5003 4.75493 38.9256 6.48382 40.6977C8.04353 41.7478 9.92111 42.3602 11.9412 42.3602C17.3553 42.3602 21.7443 37.9595 21.7443 32.5308L21.7442 21.6785Z" fill="#05060F" fill-opacity="0.32"/>
<path d="M29.1366 19.8642V18.7323C27.7494 18.7344 26.3894 18.3448 25.2125 17.6082C26.2544 18.7519 27.6263 19.5406 29.1366 19.8642ZM21.8268 12.5851C21.7914 12.3827 21.7643 12.179 21.7455 11.9745V11.2905H16.4108V32.5308C16.4023 35.0065 14.3982 37.0115 11.9265 37.0115C11.2009 37.0115 10.5157 36.8388 9.90897 36.5319C10.7285 37.6101 12.0223 38.3061 13.4787 38.3061C15.95 38.3061 17.9545 36.3014 17.9631 33.8251V12.5851H21.8268ZM13.2877 23.9981V22.7932C12.8419 22.7321 12.3926 22.7015 11.9426 22.7016C6.52807 22.7016 2.13892 27.1024 2.13892 32.5308C2.13892 35.934 3.86393 38.9333 6.48522 40.6976C4.75633 38.9257 3.6911 36.5002 3.6911 33.8251C3.6911 28.4659 7.96864 24.1083 13.2877 23.9981Z" fill="#05060F" fill-opacity="0.16"/>
<path d="M90.9478 37.9098C94.8222 37.9098 97.9623 34.7846 97.9623 30.9299C97.9623 27.0754 94.8222 23.9497 90.9478 23.9497H89.8909C93.7652 23.9497 96.9054 27.0752 96.9054 30.9299C96.9054 34.7846 93.7652 37.9098 89.8909 37.9098H90.9478Z" fill="#05060F" fill-opacity="0.16"/>
<path d="M89.795 23.9497H88.738C84.864 23.9497 81.7229 27.0752 81.7229 30.9299C81.7229 34.7846 84.864 37.9098 88.738 37.9098H89.795C85.9198 37.9098 82.7796 34.7846 82.7796 30.9299C82.7795 27.0754 85.9198 23.9497 89.795 23.9497Z" fill="#05060F" fill-opacity="0.16"/>
<path d="M36.469 20.7954V24.3333H40.6V37.8147H44.7328V24.4289H48.0956L49.2486 20.7955L36.469 20.7954ZM70.2919 20.7954V24.3333H74.423V37.8147H78.5557V24.4289H81.9183L83.0713 20.7955L70.2919 20.7954ZM50.018 22.8031C50.018 21.6945 50.9199 20.7954 52.0342 20.7954C53.1494 20.7954 54.0524 21.6945 54.0524 22.8031C54.0524 23.9118 53.15 24.811 52.0342 24.811C50.9199 24.8104 50.018 23.9118 50.018 22.8031ZM50.018 26.2456H54.0524V37.8147H50.018V26.2456ZM55.7823 20.7954V37.8146H59.8183V33.4168L61.0675 32.2684L65.0066 37.9101H69.3302L63.6606 29.6874L68.7533 24.7149H63.8531L59.8183 28.7305V20.7954H55.7823ZM99.3096 20.7954V37.8146H103.346V33.4168L104.594 32.2684L108.534 37.9101H112.859L107.189 29.6874L112.282 24.7149H107.382L103.346 28.7305V20.7954H99.3096Z" fill="#05060F" fill-opacity="0.32"/>
<path d="M89.8918 37.9095C93.7662 37.9095 96.9072 34.7843 96.9072 30.9297C96.9072 27.0752 93.7662 23.9495 89.8918 23.9495H89.7964C85.9221 23.9495 82.7815 27.075 82.7815 30.9297C82.7815 34.7843 85.9221 37.9095 89.7964 37.9095H89.8918ZM86.4331 30.9297C86.4331 29.0547 87.9611 27.5358 89.845 27.5358C91.7281 27.5358 93.2552 29.0547 93.2552 30.9297C93.2552 32.8047 91.7281 34.3244 89.845 34.3244C87.9611 34.3241 86.4331 32.8047 86.4331 30.9297Z" fill="#05060F" fill-opacity="0.32"/>
</svg>
